<?xml version="1.0" encoding="UTF-8" standalone="no"?>
<!DOCTYPE svg PUBLIC "-//W3C//DTD SVG 1.1//EN"
 "http://www.w3.org/Graphics/SVG/1.1/DTD/svg11.dtd">
<!-- Generated by graphviz version 2.38.0 (20140413.2041)
 -->
<!-- Title: G Pages: 1 -->
<svg width="1379pt" height="749pt"
 viewBox="0.00 0.00 1379.20 748.83" xmlns="http://www.w3.org/2000/svg" xmlns:xlink="http://www.w3.org/1999/xlink">
<g id="graph0" class="graph" transform="scale(1 1) rotate(0) translate(4 744.834)">
<title>G</title>
<polygon fill="white" stroke="none" points="-4,4 -4,-744.834 1375.2,-744.834 1375.2,4 -4,4"/>
<!-- ifa_ifwithnet -->
<g id="node1" class="node"><title>ifa_ifwithnet</title>
<ellipse fill="none" stroke="black" cx="973.58" cy="-470.834" rx="69.5877" ry="18"/>
<text text-anchor="middle" x="973.58" y="-467.134" font-family="Times,serif" font-size="14.00">ifa_ifwithnet</text>
</g>
<!-- rn_refines -->
<g id="node2" class="node"><title>rn_refines</title>
<ellipse fill="none" stroke="black" cx="1157.77" cy="-470.834" rx="57.6901" ry="18"/>
<text text-anchor="middle" x="1157.77" y="-467.134" font-family="Times,serif" font-size="14.00">rn_refines</text>
</g>
<!-- ifa_ifwithnet&#45;&gt;rn_refines -->
<g id="edge1" class="edge"><title>ifa_ifwithnet&#45;&gt;rn_refines</title>
<path fill="none" stroke="black" d="M1043.2,-470.834C1058.36,-470.834 1074.41,-470.834 1089.51,-470.834"/>
<polygon fill="black" stroke="black" points="1089.8,-474.334 1099.8,-470.834 1089.8,-467.334 1089.8,-474.334"/>
</g>
<!-- rt_missmsg -->
<g id="node3" class="node"><title>rt_missmsg</title>
<ellipse fill="none" stroke="black" cx="582.458" cy="-300.834" rx="64.9885" ry="18"/>
<text text-anchor="middle" x="582.458" y="-297.134" font-family="Times,serif" font-size="14.00">rt_missmsg</text>
</g>
<!-- rt_msg1 -->
<g id="node4" class="node"><title>rt_msg1</title>
<ellipse fill="lightgrey" stroke="black" cx="765.345" cy="-300.834" rx="49.2915" ry="18"/>
<text text-anchor="middle" x="765.345" y="-297.134" font-family="Times,serif" font-size="14.00">rt_msg1</text>
</g>
<!-- rt_missmsg&#45;&gt;rt_msg1 -->
<g id="edge2" class="edge"><title>rt_missmsg&#45;&gt;rt_msg1</title>
<path fill="none" stroke="black" d="M647.486,-300.834C666.438,-300.834 687.085,-300.834 705.679,-300.834"/>
<polygon fill="black" stroke="black" points="705.774,-304.334 715.774,-300.834 705.774,-297.334 705.774,-304.334"/>
</g>
<!-- raw_input -->
<g id="node5" class="node"><title>raw_input</title>
<ellipse fill="none" stroke="black" cx="765.345" cy="-208.834" rx="57.6901" ry="18"/>
<text text-anchor="middle" x="765.345" y="-205.134" font-family="Times,serif" font-size="14.00">raw_input</text>
</g>
<!-- rt_missmsg&#45;&gt;raw_input -->
<g id="edge3" class="edge"><title>rt_missmsg&#45;&gt;raw_input</title>
<path fill="none" stroke="black" d="M614.553,-285.019C645.208,-269.428 692.146,-245.555 725.297,-228.694"/>
<polygon fill="black" stroke="black" points="726.929,-231.791 734.256,-224.138 723.756,-225.551 726.929,-231.791"/>
</g>
<!-- m_copym -->
<g id="node17" class="node"><title>m_copym</title>
<ellipse fill="none" stroke="black" cx="973.58" cy="-108.834" rx="55.4913" ry="18"/>
<text text-anchor="middle" x="973.58" y="-105.134" font-family="Times,serif" font-size="14.00">m_copym</text>
</g>
<!-- raw_input&#45;&gt;m_copym -->
<g id="edge41" class="edge"><title>raw_input&#45;&gt;m_copym</title>
<path fill="none" stroke="black" d="M807.44,-196.285C820.713,-191.282 835.118,-184.793 847.238,-176.834 866.152,-164.414 864.123,-152.943 883.238,-140.834 894.55,-133.668 907.686,-127.826 920.346,-123.191"/>
<polygon fill="black" stroke="black" points="921.596,-126.462 929.897,-119.879 919.302,-119.848 921.596,-126.462"/>
</g>
<!-- m_freem -->
<g id="node21" class="node"><title>m_freem</title>
<ellipse fill="none" stroke="black" cx="1157.77" cy="-85.8342" rx="51.9908" ry="18"/>
<text text-anchor="middle" x="1157.77" y="-82.1342" font-family="Times,serif" font-size="14.00">m_freem</text>
</g>
<!-- raw_input&#45;&gt;m_freem -->
<g id="edge39" class="edge"><title>raw_input&#45;&gt;m_freem</title>
<path fill="none" stroke="black" d="M806.149,-196.015C828.648,-188.996 857.37,-180.415 883.238,-173.834 962.765,-153.603 986.854,-164.022 1063.92,-135.834 1084.38,-128.353 1105.87,-117.026 1123.02,-107.045"/>
<polygon fill="black" stroke="black" points="1125.26,-109.787 1132.07,-101.671 1121.68,-103.769 1125.26,-109.787"/>
</g>
<!-- sbappendaddr -->
<g id="node30" class="node"><title>sbappendaddr</title>
<ellipse fill="none" stroke="black" cx="973.58" cy="-200.834" rx="77.1866" ry="18"/>
<text text-anchor="middle" x="973.58" y="-197.134" font-family="Times,serif" font-size="14.00">sbappendaddr</text>
</g>
<!-- raw_input&#45;&gt;sbappendaddr -->
<g id="edge38" class="edge"><title>raw_input&#45;&gt;sbappendaddr</title>
<path fill="none" stroke="black" d="M822.972,-206.638C842.737,-205.871 865.384,-204.992 886.976,-204.155"/>
<polygon fill="black" stroke="black" points="887.282,-207.646 897.139,-203.761 887.011,-200.651 887.282,-207.646"/>
</g>
<!-- sowakeup -->
<g id="node31" class="node"><title>sowakeup</title>
<ellipse fill="lightgrey" stroke="black" cx="973.58" cy="-254.834" rx="57.3905" ry="18"/>
<text text-anchor="middle" x="973.58" y="-251.134" font-family="Times,serif" font-size="14.00">sowakeup</text>
</g>
<!-- raw_input&#45;&gt;sowakeup -->
<g id="edge40" class="edge"><title>raw_input&#45;&gt;sowakeup</title>
<path fill="none" stroke="black" d="M812.885,-219.215C843.677,-226.083 884.218,-235.125 916.746,-242.381"/>
<polygon fill="black" stroke="black" points="916.042,-245.81 926.564,-244.571 917.566,-238.978 916.042,-245.81"/>
</g>
<!-- m_retry -->
<g id="node6" class="node"><title>m_retry</title>
<ellipse fill="none" stroke="black" cx="1157.77" cy="-200.834" rx="48.1917" ry="18"/>
<text text-anchor="middle" x="1157.77" y="-197.134" font-family="Times,serif" font-size="14.00">m_retry</text>
</g>
<!-- m_reclaim -->
<g id="node7" class="node"><title>m_reclaim</title>
<ellipse fill="none" stroke="black" cx="1311.41" cy="-409.834" rx="59.5901" ry="18"/>
<text text-anchor="middle" x="1311.41" y="-406.134" font-family="Times,serif" font-size="14.00">m_reclaim</text>
</g>
<!-- m_retry&#45;&gt;m_reclaim -->
<g id="edge4" class="edge"><title>m_retry&#45;&gt;m_reclaim</title>
<path fill="none" stroke="black" d="M1171.43,-218.294C1198.14,-255.099 1260.32,-340.803 1291.65,-383.987"/>
<polygon fill="black" stroke="black" points="1288.96,-386.239 1297.67,-392.277 1294.63,-382.128 1288.96,-386.239"/>
</g>
<!-- rtalloc1 -->
<g id="node8" class="node"><title>rtalloc1</title>
<ellipse fill="none" stroke="black" cx="417.769" cy="-354.834" rx="46.5926" ry="18"/>
<text text-anchor="middle" x="417.769" y="-351.134" font-family="Times,serif" font-size="14.00">rtalloc1</text>
</g>
<!-- rtalloc1&#45;&gt;rt_missmsg -->
<g id="edge6" class="edge"><title>rtalloc1&#45;&gt;rt_missmsg</title>
<path fill="none" stroke="black" d="M453.67,-343.25C476.007,-335.836 505.371,-326.089 530.317,-317.809"/>
<polygon fill="black" stroke="black" points="531.603,-321.07 539.991,-314.598 529.398,-314.426 531.603,-321.07"/>
</g>
<!-- rtrequest -->
<g id="node9" class="node"><title>rtrequest</title>
<ellipse fill="none" stroke="black" cx="582.458" cy="-408.834" rx="54.6905" ry="18"/>
<text text-anchor="middle" x="582.458" y="-405.134" font-family="Times,serif" font-size="14.00">rtrequest</text>
</g>
<!-- rtalloc1&#45;&gt;rtrequest -->
<g id="edge5" class="edge"><title>rtalloc1&#45;&gt;rtrequest</title>
<path fill="none" stroke="black" d="M453.67,-366.419C477.017,-374.168 508.039,-384.465 533.671,-392.973"/>
<polygon fill="black" stroke="black" points="532.61,-396.308 543.204,-396.137 534.816,-389.665 532.61,-396.308"/>
</g>
<!-- rtfree -->
<g id="node22" class="node"><title>rtfree</title>
<ellipse fill="none" stroke="black" cx="973.58" cy="-524.834" rx="37.8943" ry="18"/>
<text text-anchor="middle" x="973.58" y="-521.134" font-family="Times,serif" font-size="14.00">rtfree</text>
</g>
<!-- rtrequest&#45;&gt;rtfree -->
<g id="edge44" class="edge"><title>rtrequest&#45;&gt;rtfree</title>
<path fill="none" stroke="black" d="M624.724,-420.332C642.722,-425.255 664.092,-430.976 683.452,-435.834 755.932,-454.021 778.644,-444.185 847.238,-473.834 864.889,-481.464 865.846,-489.631 883.238,-497.834 897.645,-504.63 914.163,-510.188 929.046,-514.457"/>
<polygon fill="black" stroke="black" points="928.472,-517.929 939.042,-517.206 930.328,-511.18 928.472,-517.929"/>
</g>
<!-- rt_setgate -->
<g id="node24" class="node"><title>rt_setgate</title>
<ellipse fill="none" stroke="black" cx="765.345" cy="-500.834" rx="58.4896" ry="18"/>
<text text-anchor="middle" x="765.345" y="-497.134" font-family="Times,serif" font-size="14.00">rt_setgate</text>
</g>
<!-- rtrequest&#45;&gt;rt_setgate -->
<g id="edge42" class="edge"><title>rtrequest&#45;&gt;rt_setgate</title>
<path fill="none" stroke="black" d="M607.891,-425.039C627.756,-437.832 656.766,-455.66 683.452,-468.834 694.031,-474.057 705.686,-479.072 716.775,-483.519"/>
<polygon fill="black" stroke="black" points="715.746,-486.875 726.333,-487.273 718.305,-480.36 715.746,-486.875"/>
</g>
<!-- ifa_ifwithroute -->
<g id="node27" class="node"><title>ifa_ifwithroute</title>
<ellipse fill="none" stroke="black" cx="765.345" cy="-354.834" rx="79.0865" ry="18"/>
<text text-anchor="middle" x="765.345" y="-351.134" font-family="Times,serif" font-size="14.00">ifa_ifwithroute</text>
</g>
<!-- rtrequest&#45;&gt;ifa_ifwithroute -->
<g id="edge45" class="edge"><title>rtrequest&#45;&gt;ifa_ifwithroute</title>
<path fill="none" stroke="black" d="M623.603,-396.85C648.075,-389.544 679.752,-380.088 706.855,-371.997"/>
<polygon fill="black" stroke="black" points="708.031,-375.298 716.612,-369.084 706.029,-368.591 708.031,-375.298"/>
</g>
<!-- rt_maskedcopy -->
<g id="node32" class="node"><title>rt_maskedcopy</title>
<ellipse fill="none" stroke="black" cx="765.345" cy="-408.834" rx="81.7856" ry="18"/>
<text text-anchor="middle" x="765.345" y="-405.134" font-family="Times,serif" font-size="14.00">rt_maskedcopy</text>
</g>
<!-- rtrequest&#45;&gt;rt_maskedcopy -->
<g id="edge43" class="edge"><title>rtrequest&#45;&gt;rt_maskedcopy</title>
<path fill="none" stroke="black" d="M637.24,-408.834C648.549,-408.834 660.779,-408.834 673.03,-408.834"/>
<polygon fill="black" stroke="black" points="673.306,-412.334 683.306,-408.834 673.306,-405.334 673.306,-412.334"/>
</g>
<!-- ip_output -->
<g id="node10" class="node"><title>ip_output</title>
<ellipse fill="none" stroke="black" cx="55.2451" cy="-323.834" rx="55.4913" ry="18"/>
<text text-anchor="middle" x="55.2451" y="-320.134" font-family="Times,serif" font-size="14.00">ip_output</text>
</g>
<!-- ip_output&#45;&gt;ifa_ifwithnet -->
<g id="edge7" class="edge"><title>ip_output&#45;&gt;ifa_ifwithnet</title>
<path fill="none" stroke="black" d="M80.2962,-339.886C98.0087,-351.154 123,-365.922 146.49,-375.834 375.006,-472.26 437.781,-493.733 683.452,-527.834 755.554,-537.843 778.792,-552.615 847.238,-527.834 866.821,-520.744 864.901,-507.712 883.238,-497.834 891.904,-493.166 901.488,-489.193 911.067,-485.848"/>
<polygon fill="black" stroke="black" points="912.203,-489.158 920.609,-482.71 910.017,-482.509 912.203,-489.158"/>
</g>
<!-- m_free -->
<g id="node11" class="node"><title>m_free</title>
<ellipse fill="none" stroke="black" cx="232.283" cy="-668.834" rx="42.7926" ry="18"/>
<text text-anchor="middle" x="232.283" y="-665.134" font-family="Times,serif" font-size="14.00">m_free</text>
</g>
<!-- ip_output&#45;&gt;m_free -->
<g id="edge8" class="edge"><title>ip_output&#45;&gt;m_free</title>
<path fill="none" stroke="black" d="M56.1374,-342.067C56.8169,-394.848 65.9443,-549.559 146.49,-636.834 156.108,-647.255 169.462,-654.305 182.731,-659.065"/>
<polygon fill="black" stroke="black" points="181.732,-662.42 192.323,-662.142 183.87,-655.755 181.732,-662.42"/>
</g>
<!-- ifa_ifwithdstaddr -->
<g id="node12" class="node"><title>ifa_ifwithdstaddr</title>
<ellipse fill="none" stroke="black" cx="973.58" cy="-308.834" rx="90.1842" ry="18"/>
<text text-anchor="middle" x="973.58" y="-305.134" font-family="Times,serif" font-size="14.00">ifa_ifwithdstaddr</text>
</g>
<!-- ip_output&#45;&gt;ifa_ifwithdstaddr -->
<g id="edge9" class="edge"><title>ip_output&#45;&gt;ifa_ifwithdstaddr</title>
<path fill="none" stroke="black" d="M102.842,-314.454C225.353,-291.182 566.406,-235.361 847.238,-273.834 860.437,-275.642 888.075,-283.213 914.048,-290.852"/>
<polygon fill="black" stroke="black" points="913.305,-294.282 923.888,-293.771 915.296,-287.571 913.305,-294.282"/>
</g>
<!-- rtalloc -->
<g id="node13" class="node"><title>rtalloc</title>
<ellipse fill="none" stroke="black" cx="232.283" cy="-348.834" rx="40.8928" ry="18"/>
<text text-anchor="middle" x="232.283" y="-345.134" font-family="Times,serif" font-size="14.00">rtalloc</text>
</g>
<!-- ip_output&#45;&gt;rtalloc -->
<g id="edge10" class="edge"><title>ip_output&#45;&gt;rtalloc</title>
<path fill="none" stroke="black" d="M106.404,-330.998C130.428,-334.429 159.075,-338.521 182.869,-341.919"/>
<polygon fill="black" stroke="black" points="182.688,-345.429 193.082,-343.378 183.677,-338.499 182.688,-345.429"/>
</g>
<!-- ip_optcopy -->
<g id="node14" class="node"><title>ip_optcopy</title>
<ellipse fill="none" stroke="black" cx="232.283" cy="-538.834" rx="61.99" ry="18"/>
<text text-anchor="middle" x="232.283" y="-535.134" font-family="Times,serif" font-size="14.00">ip_optcopy</text>
</g>
<!-- ip_output&#45;&gt;ip_optcopy -->
<g id="edge11" class="edge"><title>ip_output&#45;&gt;ip_optcopy</title>
<path fill="none" stroke="black" d="M60.3893,-341.869C69.6158,-378.116 95.1973,-460.303 146.49,-506.834 154.35,-513.964 163.954,-519.559 173.837,-523.931"/>
<polygon fill="black" stroke="black" points="172.767,-527.274 183.351,-527.76 175.38,-520.78 172.767,-527.274"/>
</g>
<!-- ip_insertoptions -->
<g id="node15" class="node"><title>ip_insertoptions</title>
<ellipse fill="none" stroke="black" cx="232.283" cy="-722.834" rx="85.5853" ry="18"/>
<text text-anchor="middle" x="232.283" y="-719.134" font-family="Times,serif" font-size="14.00">ip_insertoptions</text>
</g>
<!-- ip_output&#45;&gt;ip_insertoptions -->
<g id="edge12" class="edge"><title>ip_output&#45;&gt;ip_insertoptions</title>
<path fill="none" stroke="black" d="M58.3004,-342.024C66.2447,-409.277 96.9868,-642.724 146.49,-695.834 150.085,-699.691 154.228,-702.999 158.709,-705.836"/>
<polygon fill="black" stroke="black" points="157.233,-709.018 167.689,-710.733 160.585,-702.873 157.233,-709.018"/>
</g>
<!-- m_retryhdr -->
<g id="node16" class="node"><title>m_retryhdr</title>
<ellipse fill="none" stroke="black" cx="417.769" cy="-630.834" rx="63.8893" ry="18"/>
<text text-anchor="middle" x="417.769" y="-627.134" font-family="Times,serif" font-size="14.00">m_retryhdr</text>
</g>
<!-- ip_output&#45;&gt;m_retryhdr -->
<g id="edge13" class="edge"><title>ip_output&#45;&gt;m_retryhdr</title>
<path fill="none" stroke="black" d="M56.0385,-341.871C56.5384,-391.797 65.4079,-532.488 146.49,-598.834 175.768,-622.791 274.163,-629.298 343.756,-630.812"/>
<polygon fill="black" stroke="black" points="343.74,-634.312 353.804,-631 343.871,-627.313 343.74,-634.312"/>
</g>
<!-- ip_output&#45;&gt;m_copym -->
<g id="edge14" class="edge"><title>ip_output&#45;&gt;m_copym</title>
<path fill="none" stroke="black" d="M82.6516,-307.974C100.211,-298.039 124.082,-285.675 146.49,-277.834 155.771,-274.587 731.795,-157.661 916.35,-120.233"/>
<polygon fill="black" stroke="black" points="917.286,-123.615 926.391,-118.197 915.895,-116.755 917.286,-123.615"/>
</g>
<!-- ip_mloopback -->
<g id="node18" class="node"><title>ip_mloopback</title>
<ellipse fill="none" stroke="black" cx="232.283" cy="-68.8342" rx="75.2868" ry="18"/>
<text text-anchor="middle" x="232.283" y="-65.1342" font-family="Times,serif" font-size="14.00">ip_mloopback</text>
</g>
<!-- ip_output&#45;&gt;ip_mloopback -->
<g id="edge15" class="edge"><title>ip_output&#45;&gt;ip_mloopback</title>
<path fill="none" stroke="black" d="M58.5876,-305.812C64.9441,-264.028 86.2819,-159.634 146.49,-100.834 152.788,-94.6839 160.382,-89.6935 168.406,-85.6497"/>
<polygon fill="black" stroke="black" points="169.943,-88.7959 177.602,-81.4751 167.05,-82.422 169.943,-88.7959"/>
</g>
<!-- m_adj -->
<g id="node19" class="node"><title>m_adj</title>
<ellipse fill="none" stroke="black" cx="232.283" cy="-214.834" rx="38.1938" ry="18"/>
<text text-anchor="middle" x="232.283" y="-211.134" font-family="Times,serif" font-size="14.00">m_adj</text>
</g>
<!-- ip_output&#45;&gt;m_adj -->
<g id="edge16" class="edge"><title>ip_output&#45;&gt;m_adj</title>
<path fill="none" stroke="black" d="M72.83,-306.542C89.9595,-289.483 118.119,-263.596 146.49,-246.834 159.808,-238.966 175.403,-232.422 189.561,-227.345"/>
<polygon fill="black" stroke="black" points="190.77,-230.63 199.087,-224.066 188.492,-224.011 190.77,-230.63"/>
</g>
<!-- in_broadcast -->
<g id="node20" class="node"><title>in_broadcast</title>
<ellipse fill="none" stroke="black" cx="232.283" cy="-160.834" rx="70.6878" ry="18"/>
<text text-anchor="middle" x="232.283" y="-157.134" font-family="Times,serif" font-size="14.00">in_broadcast</text>
</g>
<!-- ip_output&#45;&gt;in_broadcast -->
<g id="edge17" class="edge"><title>ip_output&#45;&gt;in_broadcast</title>
<path fill="none" stroke="black" d="M63.3618,-306.012C75.8455,-276.993 104.424,-219.589 146.49,-187.834 152.733,-183.122 159.822,-179.218 167.179,-175.986"/>
<polygon fill="black" stroke="black" points="168.598,-179.188 176.598,-172.242 166.012,-172.684 168.598,-179.188"/>
</g>
<!-- ip_output&#45;&gt;m_freem -->
<g id="edge18" class="edge"><title>ip_output&#45;&gt;m_freem</title>
<path fill="none" stroke="black" d="M55.7836,-305.611C55.5831,-254.495 62.7264,-109.109 146.49,-41.8342 240.547,33.7072 296.132,-16.8342 416.769,-16.8342 416.769,-16.8342 416.769,-16.8342 766.345,-16.8342 890.922,-16.8342 1034.49,-51.322 1107.94,-71.5331"/>
<polygon fill="black" stroke="black" points="1107.25,-74.9757 1117.82,-74.2852 1109.13,-68.232 1107.25,-74.9757"/>
</g>
<!-- ip_output&#45;&gt;rtfree -->
<g id="edge19" class="edge"><title>ip_output&#45;&gt;rtfree</title>
<path fill="none" stroke="black" d="M56.7795,-341.929C59.2218,-388.124 72.6911,-510.656 146.49,-565.834 194.712,-601.889 356.559,-584.834 416.769,-584.834 416.769,-584.834 416.769,-584.834 583.458,-584.834 710.826,-584.834 858.936,-553.046 930.112,-535.745"/>
<polygon fill="black" stroke="black" points="931.169,-539.09 940.044,-533.304 929.497,-532.292 931.169,-539.09"/>
</g>
<!-- in_cksum -->
<g id="node23" class="node"><title>in_cksum</title>
<ellipse fill="none" stroke="black" cx="417.769" cy="-154.834" rx="55.4913" ry="18"/>
<text text-anchor="middle" x="417.769" y="-151.134" font-family="Times,serif" font-size="14.00">in_cksum</text>
</g>
<!-- ip_output&#45;&gt;in_cksum -->
<g id="edge20" class="edge"><title>ip_output&#45;&gt;in_cksum</title>
<path fill="none" stroke="black" d="M58.4932,-305.843C64.5012,-266.404 84.908,-172.76 146.49,-133.834 216.441,-89.6188 317.803,-116.047 374.43,-136.936"/>
<polygon fill="black" stroke="black" points="373.203,-140.214 383.794,-140.491 375.687,-133.669 373.203,-140.214"/>
</g>
<!-- rtalloc&#45;&gt;rtalloc1 -->
<g id="edge27" class="edge"><title>rtalloc&#45;&gt;rtalloc1</title>
<path fill="none" stroke="black" d="M273.55,-350.151C299.199,-350.99 332.786,-352.088 360.987,-353.01"/>
<polygon fill="black" stroke="black" points="360.999,-356.512 371.108,-353.341 361.228,-349.516 360.999,-356.512"/>
</g>
<!-- ip_insertoptions&#45;&gt;m_retryhdr -->
<g id="edge28" class="edge"><title>ip_insertoptions&#45;&gt;m_retryhdr</title>
<path fill="none" stroke="black" d="M285.72,-708.616C296.629,-704.975 307.897,-700.692 318.075,-695.834 342.32,-684.262 367.585,-667.521 386.482,-653.928"/>
<polygon fill="black" stroke="black" points="388.678,-656.658 394.69,-647.934 384.55,-651.005 388.678,-656.658"/>
</g>
<!-- m_retryhdr&#45;&gt;m_reclaim -->
<g id="edge21" class="edge"><title>m_retryhdr&#45;&gt;m_reclaim</title>
<path fill="none" stroke="black" d="M481.511,-629.672C550.751,-628.491 665.495,-626.834 764.345,-626.834 764.345,-626.834 764.345,-626.834 974.58,-626.834 1086.77,-626.834 1125.75,-619.007 1215.61,-551.834 1255.85,-521.758 1284.35,-469.274 1299.03,-437.229"/>
<polygon fill="black" stroke="black" points="1302.27,-438.548 1303.13,-427.988 1295.87,-435.704 1302.27,-438.548"/>
</g>
<!-- m_copym&#45;&gt;m_retry -->
<g id="edge22" class="edge"><title>m_copym&#45;&gt;m_retry</title>
<path fill="none" stroke="black" d="M1004.26,-123.82C1035.59,-139.644 1085.08,-164.633 1119.13,-181.831"/>
<polygon fill="black" stroke="black" points="1117.8,-185.077 1128.3,-186.461 1120.95,-178.829 1117.8,-185.077"/>
</g>
<!-- m_copym&#45;&gt;m_freem -->
<g id="edge23" class="edge"><title>m_copym&#45;&gt;m_freem</title>
<path fill="none" stroke="black" d="M1025.33,-102.427C1048.07,-99.556 1075.03,-96.1535 1098.58,-93.1795"/>
<polygon fill="black" stroke="black" points="1099.31,-96.6154 1108.79,-91.8904 1098.44,-89.6705 1099.31,-96.6154"/>
</g>
<!-- ip_mloopback&#45;&gt;m_copym -->
<g id="edge31" class="edge"><title>ip_mloopback&#45;&gt;m_copym</title>
<path fill="none" stroke="black" d="M302.559,-75.4987C319.408,-77.0214 337.382,-78.5636 354.075,-79.8342 555.983,-95.203 795.632,-103.656 908.162,-107.05"/>
<polygon fill="black" stroke="black" points="908.224,-110.553 918.324,-107.353 908.433,-103.556 908.224,-110.553"/>
</g>
<!-- ip_mloopback&#45;&gt;in_cksum -->
<g id="edge30" class="edge"><title>ip_mloopback&#45;&gt;in_cksum</title>
<path fill="none" stroke="black" d="M276.646,-83.4167C290.144,-88.427 304.929,-94.4074 318.075,-100.834 334.921,-109.07 337.712,-113.676 354.075,-122.834 361.51,-126.995 369.545,-131.263 377.302,-135.271"/>
<polygon fill="black" stroke="black" points="375.73,-138.399 386.228,-139.835 378.917,-132.166 375.73,-138.399"/>
</g>
<!-- looutput -->
<g id="node25" class="node"><title>looutput</title>
<ellipse fill="none" stroke="black" cx="582.458" cy="-62.8342" rx="50.0912" ry="18"/>
<text text-anchor="middle" x="582.458" y="-59.1342" font-family="Times,serif" font-size="14.00">looutput</text>
</g>
<!-- ip_mloopback&#45;&gt;looutput -->
<g id="edge29" class="edge"><title>ip_mloopback&#45;&gt;looutput</title>
<path fill="none" stroke="black" d="M307.548,-67.5544C371.511,-66.4522 462.63,-64.882 521.903,-63.8605"/>
<polygon fill="black" stroke="black" points="522.284,-67.3546 532.223,-63.6827 522.164,-60.3556 522.284,-67.3546"/>
</g>
<!-- ifafree -->
<g id="node26" class="node"><title>ifafree</title>
<ellipse fill="none" stroke="black" cx="1157.77" cy="-524.834" rx="40.8928" ry="18"/>
<text text-anchor="middle" x="1157.77" y="-521.134" font-family="Times,serif" font-size="14.00">ifafree</text>
</g>
<!-- rtfree&#45;&gt;ifafree -->
<g id="edge32" class="edge"><title>rtfree&#45;&gt;ifafree</title>
<path fill="none" stroke="black" d="M1011.45,-524.834C1038.79,-524.834 1076.39,-524.834 1106.49,-524.834"/>
<polygon fill="black" stroke="black" points="1106.79,-528.334 1116.79,-524.834 1106.79,-521.334 1106.79,-528.334"/>
</g>
<!-- rt_setgate&#45;&gt;rtalloc1 -->
<g id="edge25" class="edge"><title>rt_setgate&#45;&gt;rtalloc1</title>
<path fill="none" stroke="black" d="M711.413,-493.639C659.754,-485.097 580.022,-467.796 517.464,-435.834 488.965,-421.274 461.221,-397.374 442.444,-379.3"/>
<polygon fill="black" stroke="black" points="444.555,-376.468 434.97,-371.955 439.649,-381.46 444.555,-376.468"/>
</g>
<!-- rt_setgate&#45;&gt;rtfree -->
<g id="edge24" class="edge"><title>rt_setgate&#45;&gt;rtfree</title>
<path fill="none" stroke="black" d="M820.261,-507.109C853.287,-510.952 895.107,-515.819 926.568,-519.48"/>
<polygon fill="black" stroke="black" points="926.475,-522.992 936.813,-520.672 927.284,-516.039 926.475,-522.992"/>
</g>
<!-- looutput&#45;&gt;m_freem -->
<g id="edge26" class="edge"><title>looutput&#45;&gt;m_freem</title>
<path fill="none" stroke="black" d="M632.568,-64.719C719.525,-68.0691 906.281,-75.3215 1063.92,-81.8342 1074.18,-82.2582 1085.08,-82.7186 1095.67,-83.1712"/>
<polygon fill="black" stroke="black" points="1095.55,-86.6691 1105.69,-83.6012 1095.85,-79.6756 1095.55,-86.6691"/>
</g>
<!-- ifa_ifwithroute&#45;&gt;ifa_ifwithnet -->
<g id="edge33" class="edge"><title>ifa_ifwithroute&#45;&gt;ifa_ifwithnet</title>
<path fill="none" stroke="black" d="M822.199,-367.518C831.161,-371.172 839.89,-375.851 847.238,-381.834 871.945,-401.955 858.244,-424.07 883.238,-443.834 890.071,-449.238 897.975,-453.563 906.198,-457.024"/>
<polygon fill="black" stroke="black" points="904.987,-460.308 915.578,-460.576 907.466,-453.761 904.987,-460.308"/>
</g>
<!-- ifa_ifwithroute&#45;&gt;rtalloc1 -->
<g id="edge37" class="edge"><title>ifa_ifwithroute&#45;&gt;rtalloc1</title>
<path fill="none" stroke="black" d="M685.795,-354.834C621.541,-354.834 532.238,-354.834 474.967,-354.834"/>
<polygon fill="black" stroke="black" points="474.659,-351.334 464.659,-354.834 474.659,-358.334 474.659,-351.334"/>
</g>
<!-- ifa_ifwithroute&#45;&gt;ifa_ifwithdstaddr -->
<g id="edge34" class="edge"><title>ifa_ifwithroute&#45;&gt;ifa_ifwithdstaddr</title>
<path fill="none" stroke="black" d="M822.427,-342.325C847.176,-336.805 876.526,-330.259 902.683,-324.424"/>
<polygon fill="black" stroke="black" points="903.537,-327.82 912.535,-322.227 902.013,-320.988 903.537,-327.82"/>
</g>
<!-- ifa_ifwithaddr -->
<g id="node28" class="node"><title>ifa_ifwithaddr</title>
<ellipse fill="none" stroke="black" cx="973.58" cy="-416.834" rx="75.2868" ry="18"/>
<text text-anchor="middle" x="973.58" y="-413.134" font-family="Times,serif" font-size="14.00">ifa_ifwithaddr</text>
</g>
<!-- ifa_ifwithroute&#45;&gt;ifa_ifwithaddr -->
<g id="edge35" class="edge"><title>ifa_ifwithroute&#45;&gt;ifa_ifwithaddr</title>
<path fill="none" stroke="black" d="M813.918,-369.136C844.427,-378.308 884.182,-390.259 916.265,-399.904"/>
<polygon fill="black" stroke="black" points="915.372,-403.291 925.956,-402.818 917.387,-396.587 915.372,-403.291"/>
</g>
<!-- ifaof_ifpforaddr -->
<g id="node29" class="node"><title>ifaof_ifpforaddr</title>
<ellipse fill="none" stroke="black" cx="973.58" cy="-362.834" rx="83.3857" ry="18"/>
<text text-anchor="middle" x="973.58" y="-359.134" font-family="Times,serif" font-size="14.00">ifaof_ifpforaddr</text>
</g>
<!-- ifa_ifwithroute&#45;&gt;ifaof_ifpforaddr -->
<g id="edge36" class="edge"><title>ifa_ifwithroute&#45;&gt;ifaof_ifpforaddr</title>
<path fill="none" stroke="black" d="M843.726,-357.836C855.991,-358.312 868.776,-358.808 881.323,-359.294"/>
<polygon fill="black" stroke="black" points="881.192,-362.792 891.32,-359.682 881.463,-355.797 881.192,-362.792"/>
</g>
<!-- sbappendaddr&#45;&gt;m_retry -->
<g id="edge46" class="edge"><title>sbappendaddr&#45;&gt;m_retry</title>
<path fill="none" stroke="black" d="M1051.05,-200.834C1067.19,-200.834 1083.96,-200.834 1099.26,-200.834"/>
<polygon fill="black" stroke="black" points="1099.59,-204.334 1109.59,-200.834 1099.59,-197.334 1099.59,-204.334"/>
</g>
</g>
</svg>
