<?xml version="1.0" encoding="UTF-8" standalone="no"?>
<!DOCTYPE svg PUBLIC "-//W3C//DTD SVG 1.1//EN"
 "http://www.w3.org/Graphics/SVG/1.1/DTD/svg11.dtd">
<!-- Generated by graphviz version 2.38.0 (20140413.2041)
 -->
<!-- Title: G Pages: 1 -->
<svg width="1581pt" height="1093pt"
 viewBox="0.00 0.00 1580.79 1093.03" xmlns="http://www.w3.org/2000/svg" xmlns:xlink="http://www.w3.org/1999/xlink">
<g id="graph0" class="graph" transform="scale(1 1) rotate(0) translate(4 1089.03)">
<title>G</title>
<polygon fill="white" stroke="none" points="-4,4 -4,-1089.03 1576.79,-1089.03 1576.79,4 -4,4"/>
<g id="clust1" class="cluster"><title>cluster1</title>
<polygon fill="none" stroke="black" points="8,-556.029 8,-631.029 339.175,-631.029 339.175,-556.029 8,-556.029"/>
<text text-anchor="middle" x="173.588" y="-615.829" font-family="Times,serif" font-size="14.00" fill="blue">netinet/tcp_output.c</text>
</g>
<g id="clust2" class="cluster"><title>cluster2</title>
<polygon fill="none" stroke="black" points="174.587,-390.029 174.587,-465.029 334.077,-465.029 334.077,-390.029 174.587,-390.029"/>
<text text-anchor="middle" x="254.332" y="-449.829" font-family="Times,serif" font-size="14.00" fill="blue">netinet/tcp_debug.c</text>
</g>
<g id="clust3" class="cluster"><title>cluster3</title>
<polygon fill="none" stroke="black" points="177.587,-43.0289 177.587,-118.029 330.077,-118.029 330.077,-43.0289 177.587,-43.0289"/>
<text text-anchor="middle" x="253.832" y="-102.829" font-family="Times,serif" font-size="14.00" fill="blue">netinet/in_cksum.c</text>
</g>
<g id="clust4" class="cluster"><title>cluster4</title>
<polygon fill="none" stroke="black" points="177.587,-239.029 177.587,-314.029 330.077,-314.029 330.077,-239.029 177.587,-239.029"/>
<text text-anchor="middle" x="253.832" y="-298.829" font-family="Times,serif" font-size="14.00" fill="blue">netinet/ip_output.c</text>
</g>
<g id="clust5" class="cluster"><title>cluster5</title>
<polygon fill="none" stroke="black" points="364.473,-390.029 364.473,-465.029 505.066,-465.029 505.066,-390.029 364.473,-390.029"/>
<text text-anchor="middle" x="434.769" y="-449.829" font-family="Times,serif" font-size="14.00" fill="blue">netinet/ip_icmp.c</text>
</g>
<g id="clust6" class="cluster"><title>cluster6</title>
<polygon fill="none" stroke="black" points="1271.66,-840.029 1271.66,-915.029 1403.35,-915.029 1403.35,-840.029 1271.66,-840.029"/>
<text text-anchor="middle" x="1337.51" y="-899.829" font-family="Times,serif" font-size="14.00" fill="blue">net/radix.c</text>
</g>
<g id="clust7" class="cluster"><title>cluster7</title>
<polygon fill="none" stroke="black" points="180.838,-126.029 180.838,-201.029 326.826,-201.029 326.826,-126.029 180.838,-126.029"/>
<text text-anchor="middle" x="253.832" y="-185.829" font-family="Times,serif" font-size="14.00" fill="blue">netinet/tcp_subr.c</text>
</g>
<g id="clust8" class="cluster"><title>cluster8</title>
<polygon fill="none" stroke="black" points="1062.13,-409.029 1062.13,-592.029 1232.81,-592.029 1232.81,-409.029 1062.13,-409.029"/>
<text text-anchor="middle" x="1147.47" y="-576.829" font-family="Times,serif" font-size="14.00" fill="blue">kern/uipc_socket2.c</text>
</g>
<g id="clust9" class="cluster"><title>cluster9</title>
<polygon fill="none" stroke="black" points="1072.52,-190.029 1072.52,-373.029 1564.79,-373.029 1564.79,-190.029 1072.52,-190.029"/>
<text text-anchor="middle" x="1318.66" y="-357.829" font-family="Times,serif" font-size="14.00" fill="blue">kern/uipc_mbuf.c</text>
</g>
<g id="clust10" class="cluster"><title>cluster10</title>
<polygon fill="none" stroke="black" points="1049.13,-840.029 1049.13,-1077.03 1245.81,-1077.03 1245.81,-840.029 1049.13,-840.029"/>
<text text-anchor="middle" x="1147.47" y="-1061.83" font-family="Times,serif" font-size="14.00" fill="blue">net/if.c</text>
</g>
<g id="clust11" class="cluster"><title>cluster11</title>
<polygon fill="none" stroke="black" points="385.823,-629.029 385.823,-832.029 1386.45,-832.029 1386.45,-629.029 385.823,-629.029"/>
<text text-anchor="middle" x="886.137" y="-816.829" font-family="Times,serif" font-size="14.00" fill="blue">net/route.c</text>
</g>
<g id="clust12" class="cluster"><title>cluster12</title>
<polygon fill="none" stroke="black" points="359.175,-503.029 359.175,-578.029 510.363,-578.029 510.363,-503.029 359.175,-503.029"/>
<text text-anchor="middle" x="434.769" y="-562.829" font-family="Times,serif" font-size="14.00" fill="blue">netinet/in.c</text>
</g>
<g id="clust13" class="cluster"><title>cluster13</title>
<polygon fill="none" stroke="black" points="177.437,-473.029 177.437,-548.029 330.228,-548.029 330.228,-473.029 177.437,-473.029"/>
<text text-anchor="middle" x="253.832" y="-532.829" font-family="Times,serif" font-size="14.00" fill="blue">netinet/tcp_input.c</text>
</g>
<g id="clust14" class="cluster"><title>cluster14</title>
<polygon fill="none" stroke="black" points="870.389,-546.029 870.389,-621.029 1009.08,-621.029 1009.08,-546.029 870.389,-546.029"/>
<text text-anchor="middle" x="939.734" y="-605.829" font-family="Times,serif" font-size="14.00" fill="blue">net/raw_usrreq.c</text>
</g>
<g id="clust15" class="cluster"><title>cluster15</title>
<polygon fill="none" stroke="black" points="683.353,-463.029 683.353,-538.029 996.63,-538.029 996.63,-463.029 683.353,-463.029"/>
<text text-anchor="middle" x="839.991" y="-522.829" font-family="Times,serif" font-size="14.00" fill="blue">net/rtsock.c</text>
</g>
<!-- tcp_mss -->
<g id="node1" class="node"><title>tcp_mss</title>
<ellipse fill="none" stroke="black" cx="253.832" cy="-499.029" rx="49.2915" ry="18"/>
<text text-anchor="middle" x="253.832" y="-495.329" font-family="Times,serif" font-size="14.00">tcp_mss</text>
</g>
<!-- in_localaddr -->
<g id="node2" class="node"><title>in_localaddr</title>
<ellipse fill="none" stroke="black" cx="434.769" cy="-529.029" rx="67.6881" ry="18"/>
<text text-anchor="middle" x="434.769" y="-525.329" font-family="Times,serif" font-size="14.00">in_localaddr</text>
</g>
<!-- tcp_mss&#45;&gt;in_localaddr -->
<g id="edge1" class="edge"><title>tcp_mss&#45;&gt;in_localaddr</title>
<path fill="none" stroke="black" d="M299.064,-506.445C319.619,-509.891 344.496,-514.062 367.25,-517.876"/>
<polygon fill="black" stroke="black" points="366.75,-521.341 377.191,-519.543 367.907,-514.438 366.75,-521.341"/>
</g>
<!-- rtalloc -->
<g id="node3" class="node"><title>rtalloc</title>
<ellipse fill="none" stroke="black" cx="434.769" cy="-655.029" rx="40.8928" ry="18"/>
<text text-anchor="middle" x="434.769" y="-651.329" font-family="Times,serif" font-size="14.00">rtalloc</text>
</g>
<!-- tcp_mss&#45;&gt;rtalloc -->
<g id="edge2" class="edge"><title>tcp_mss&#45;&gt;rtalloc</title>
<path fill="none" stroke="black" d="M284.307,-513.511C301.567,-522.925 323.065,-536.348 339.175,-552.029 350.658,-563.206 348.949,-569.691 359.175,-582.029 374.044,-599.968 392.796,-618.303 407.778,-632.111"/>
<polygon fill="black" stroke="black" points="405.478,-634.749 415.229,-638.892 410.19,-629.573 405.478,-634.749"/>
</g>
<!-- sbreserve -->
<g id="node4" class="node"><title>sbreserve</title>
<ellipse fill="none" stroke="black" cx="1147.47" cy="-435.029" rx="56.59" ry="18"/>
<text text-anchor="middle" x="1147.47" y="-431.329" font-family="Times,serif" font-size="14.00">sbreserve</text>
</g>
<!-- tcp_mss&#45;&gt;sbreserve -->
<g id="edge3" class="edge"><title>tcp_mss&#45;&gt;sbreserve</title>
<path fill="none" stroke="black" d="M301.386,-494.048C380.017,-485.778 544.18,-469.126 683.353,-459.029 825.04,-448.749 991.424,-441.238 1081.15,-437.563"/>
<polygon fill="black" stroke="black" points="1081.33,-441.059 1091.17,-437.155 1081.04,-434.065 1081.33,-441.059"/>
</g>
<!-- rtalloc1 -->
<g id="node10" class="node"><title>rtalloc1</title>
<ellipse fill="none" stroke="black" cx="596.858" cy="-655.029" rx="46.5926" ry="18"/>
<text text-anchor="middle" x="596.858" y="-651.329" font-family="Times,serif" font-size="14.00">rtalloc1</text>
</g>
<!-- rtalloc&#45;&gt;rtalloc1 -->
<g id="edge17" class="edge"><title>rtalloc&#45;&gt;rtalloc1</title>
<path fill="none" stroke="black" d="M475.754,-655.029C495.093,-655.029 518.637,-655.029 539.738,-655.029"/>
<polygon fill="black" stroke="black" points="539.872,-658.529 549.872,-655.029 539.872,-651.529 539.872,-658.529"/>
</g>
<!-- rt_missmsg -->
<g id="node5" class="node"><title>rt_missmsg</title>
<ellipse fill="none" stroke="black" cx="756.347" cy="-489.029" rx="64.9885" ry="18"/>
<text text-anchor="middle" x="756.347" y="-485.329" font-family="Times,serif" font-size="14.00">rt_missmsg</text>
</g>
<!-- rt_msg1 -->
<g id="node6" class="node"><title>rt_msg1</title>
<ellipse fill="lightgrey" stroke="black" cx="939.234" cy="-489.029" rx="49.2915" ry="18"/>
<text text-anchor="middle" x="939.234" y="-485.329" font-family="Times,serif" font-size="14.00">rt_msg1</text>
</g>
<!-- rt_missmsg&#45;&gt;rt_msg1 -->
<g id="edge4" class="edge"><title>rt_missmsg&#45;&gt;rt_msg1</title>
<path fill="none" stroke="black" d="M821.376,-489.029C840.327,-489.029 860.974,-489.029 879.568,-489.029"/>
<polygon fill="black" stroke="black" points="879.664,-492.529 889.664,-489.029 879.664,-485.529 879.664,-492.529"/>
</g>
<!-- raw_input -->
<g id="node7" class="node"><title>raw_input</title>
<ellipse fill="none" stroke="black" cx="939.234" cy="-572.029" rx="57.6901" ry="18"/>
<text text-anchor="middle" x="939.234" y="-568.329" font-family="Times,serif" font-size="14.00">raw_input</text>
</g>
<!-- rt_missmsg&#45;&gt;raw_input -->
<g id="edge5" class="edge"><title>rt_missmsg&#45;&gt;raw_input</title>
<path fill="none" stroke="black" d="M785.726,-505.363C805.474,-516.407 832.598,-530.942 857.341,-542.029 867.808,-546.719 879.25,-551.287 890.148,-555.387"/>
<polygon fill="black" stroke="black" points="888.953,-558.677 899.547,-558.86 891.38,-552.111 888.953,-558.677"/>
</g>
<!-- m_copym -->
<g id="node15" class="node"><title>m_copym</title>
<ellipse fill="none" stroke="black" cx="1147.47" cy="-324.029" rx="55.4913" ry="18"/>
<text text-anchor="middle" x="1147.47" y="-320.329" font-family="Times,serif" font-size="14.00">m_copym</text>
</g>
<!-- raw_input&#45;&gt;m_copym -->
<g id="edge37" class="edge"><title>raw_input&#45;&gt;m_copym</title>
<path fill="none" stroke="black" d="M989.204,-562.694C1001.14,-558.25 1012.84,-551.696 1021.13,-542.029 1061.57,-494.843 1017.22,-458.359 1049.13,-405.029 1064.01,-380.157 1089.38,-359.42 1110.49,-345.156"/>
<polygon fill="black" stroke="black" points="1112.48,-348.037 1118.93,-339.635 1108.65,-342.178 1112.48,-348.037"/>
</g>
<!-- m_freem -->
<g id="node16" class="node"><title>m_freem</title>
<ellipse fill="none" stroke="black" cx="1337.51" cy="-324.029" rx="51.9908" ry="18"/>
<text text-anchor="middle" x="1337.51" y="-320.329" font-family="Times,serif" font-size="14.00">m_freem</text>
</g>
<!-- raw_input&#45;&gt;m_freem -->
<g id="edge35" class="edge"><title>raw_input&#45;&gt;m_freem</title>
<path fill="none" stroke="black" d="M983.327,-583.785C1003.19,-588.619 1027.19,-593.64 1049.13,-596.029 1136.03,-605.492 1174.89,-647.138 1245.81,-596.029 1324.91,-539.021 1336.06,-410.012 1336.94,-352.558"/>
<polygon fill="black" stroke="black" points="1340.44,-352.399 1336.99,-342.379 1333.44,-352.36 1340.44,-352.399"/>
</g>
<!-- sbappendaddr -->
<g id="node34" class="node"><title>sbappendaddr</title>
<ellipse fill="none" stroke="black" cx="1147.47" cy="-543.029" rx="77.1866" ry="18"/>
<text text-anchor="middle" x="1147.47" y="-539.329" font-family="Times,serif" font-size="14.00">sbappendaddr</text>
</g>
<!-- raw_input&#45;&gt;sbappendaddr -->
<g id="edge34" class="edge"><title>raw_input&#45;&gt;sbappendaddr</title>
<path fill="none" stroke="black" d="M992.276,-564.711C1015.98,-561.378 1044.5,-557.368 1070.53,-553.707"/>
<polygon fill="black" stroke="black" points="1071.33,-557.129 1080.75,-552.271 1070.36,-550.197 1071.33,-557.129"/>
</g>
<!-- sowakeup -->
<g id="node35" class="node"><title>sowakeup</title>
<ellipse fill="lightgrey" stroke="black" cx="1147.47" cy="-489.029" rx="57.3905" ry="18"/>
<text text-anchor="middle" x="1147.47" y="-485.329" font-family="Times,serif" font-size="14.00">sowakeup</text>
</g>
<!-- raw_input&#45;&gt;sowakeup -->
<g id="edge36" class="edge"><title>raw_input&#45;&gt;sowakeup</title>
<path fill="none" stroke="black" d="M982.428,-559.911C995.345,-555.287 1009.26,-549.331 1021.13,-542.029 1035.59,-533.127 1034.3,-524.311 1049.13,-516.029 1060.84,-509.486 1074.24,-504.442 1087.28,-500.586"/>
<polygon fill="black" stroke="black" points="1088.44,-503.897 1097.15,-497.863 1086.58,-497.149 1088.44,-503.897"/>
</g>
<!-- m_retry -->
<g id="node8" class="node"><title>m_retry</title>
<ellipse fill="none" stroke="black" cx="1337.51" cy="-216.029" rx="48.1917" ry="18"/>
<text text-anchor="middle" x="1337.51" y="-212.329" font-family="Times,serif" font-size="14.00">m_retry</text>
</g>
<!-- m_reclaim -->
<g id="node9" class="node"><title>m_reclaim</title>
<ellipse fill="none" stroke="black" cx="1496.99" cy="-243.029" rx="59.5901" ry="18"/>
<text text-anchor="middle" x="1496.99" y="-239.329" font-family="Times,serif" font-size="14.00">m_reclaim</text>
</g>
<!-- m_retry&#45;&gt;m_reclaim -->
<g id="edge6" class="edge"><title>m_retry&#45;&gt;m_reclaim</title>
<path fill="none" stroke="black" d="M1381.54,-223.407C1397.83,-226.2 1416.71,-229.437 1434.38,-232.466"/>
<polygon fill="black" stroke="black" points="1434.17,-235.981 1444.62,-234.221 1435.35,-229.081 1434.17,-235.981"/>
</g>
<!-- rtalloc1&#45;&gt;rt_missmsg -->
<g id="edge8" class="edge"><title>rtalloc1&#45;&gt;rt_missmsg</title>
<path fill="none" stroke="black" d="M613.826,-638.198C641.743,-608.772 699.534,-547.859 731.965,-513.674"/>
<polygon fill="black" stroke="black" points="734.521,-516.066 738.865,-506.402 729.443,-511.248 734.521,-516.066"/>
</g>
<!-- rtrequest -->
<g id="node11" class="node"><title>rtrequest</title>
<ellipse fill="none" stroke="black" cx="756.347" cy="-709.029" rx="54.6905" ry="18"/>
<text text-anchor="middle" x="756.347" y="-705.329" font-family="Times,serif" font-size="14.00">rtrequest</text>
</g>
<!-- rtalloc1&#45;&gt;rtrequest -->
<g id="edge7" class="edge"><title>rtalloc1&#45;&gt;rtrequest</title>
<path fill="none" stroke="black" d="M632.42,-666.879C654.623,-674.493 683.755,-684.481 708.087,-692.824"/>
<polygon fill="black" stroke="black" points="707.245,-696.236 717.84,-696.168 709.515,-689.614 707.245,-696.236"/>
</g>
<!-- rtfree -->
<g id="node18" class="node"><title>rtfree</title>
<ellipse fill="none" stroke="black" cx="1147.47" cy="-701.029" rx="37.8943" ry="18"/>
<text text-anchor="middle" x="1147.47" y="-697.329" font-family="Times,serif" font-size="14.00">rtfree</text>
</g>
<!-- rtrequest&#45;&gt;rtfree -->
<g id="edge40" class="edge"><title>rtrequest&#45;&gt;rtfree</title>
<path fill="none" stroke="black" d="M795.327,-721.818C813.806,-727.385 836.485,-733.263 857.341,-736.029 929.503,-745.6 949.007,-745.909 1021.13,-736.029 1050.64,-731.986 1082.99,-722.825 1107.44,-714.889"/>
<polygon fill="black" stroke="black" points="1108.68,-718.167 1117.07,-711.696 1106.47,-711.523 1108.68,-718.167"/>
</g>
<!-- rt_setgate -->
<g id="node20" class="node"><title>rt_setgate</title>
<ellipse fill="none" stroke="black" cx="939.234" cy="-655.029" rx="58.4896" ry="18"/>
<text text-anchor="middle" x="939.234" y="-651.329" font-family="Times,serif" font-size="14.00">rt_setgate</text>
</g>
<!-- rtrequest&#45;&gt;rt_setgate -->
<g id="edge38" class="edge"><title>rtrequest&#45;&gt;rt_setgate</title>
<path fill="none" stroke="black" d="M797.492,-697.045C823.841,-689.179 858.541,-678.82 886.893,-670.356"/>
<polygon fill="black" stroke="black" points="888.051,-673.663 896.632,-667.448 886.049,-666.955 888.051,-673.663"/>
</g>
<!-- ifa_ifwithroute -->
<g id="node30" class="node"><title>ifa_ifwithroute</title>
<ellipse fill="none" stroke="black" cx="939.234" cy="-783.029" rx="79.0865" ry="18"/>
<text text-anchor="middle" x="939.234" y="-779.329" font-family="Times,serif" font-size="14.00">ifa_ifwithroute</text>
</g>
<!-- rtrequest&#45;&gt;ifa_ifwithroute -->
<g id="edge41" class="edge"><title>rtrequest&#45;&gt;ifa_ifwithroute</title>
<path fill="none" stroke="black" d="M790.606,-723.204C810.025,-731.429 835.024,-741.929 857.341,-751.029 867.513,-755.177 878.435,-759.55 888.859,-763.687"/>
<polygon fill="black" stroke="black" points="887.671,-766.981 898.257,-767.406 890.247,-760.472 887.671,-766.981"/>
</g>
<!-- rt_maskedcopy -->
<g id="node36" class="node"><title>rt_maskedcopy</title>
<ellipse fill="none" stroke="black" cx="939.234" cy="-709.029" rx="81.7856" ry="18"/>
<text text-anchor="middle" x="939.234" y="-705.329" font-family="Times,serif" font-size="14.00">rt_maskedcopy</text>
</g>
<!-- rtrequest&#45;&gt;rt_maskedcopy -->
<g id="edge39" class="edge"><title>rtrequest&#45;&gt;rt_maskedcopy</title>
<path fill="none" stroke="black" d="M811.129,-709.029C822.439,-709.029 834.668,-709.029 846.919,-709.029"/>
<polygon fill="black" stroke="black" points="847.195,-712.529 857.195,-709.029 847.195,-705.529 847.195,-712.529"/>
</g>
<!-- tcp_trace -->
<g id="node12" class="node"><title>tcp_trace</title>
<ellipse fill="none" stroke="black" cx="253.832" cy="-416.029" rx="55.4913" ry="18"/>
<text text-anchor="middle" x="253.832" y="-412.329" font-family="Times,serif" font-size="14.00">tcp_trace</text>
</g>
<!-- iptime -->
<g id="node13" class="node"><title>iptime</title>
<ellipse fill="none" stroke="black" cx="434.769" cy="-416.029" rx="40.0939" ry="18"/>
<text text-anchor="middle" x="434.769" y="-412.329" font-family="Times,serif" font-size="14.00">iptime</text>
</g>
<!-- tcp_trace&#45;&gt;iptime -->
<g id="edge9" class="edge"><title>tcp_trace&#45;&gt;iptime</title>
<path fill="none" stroke="black" d="M309.492,-416.029C333.199,-416.029 360.771,-416.029 383.912,-416.029"/>
<polygon fill="black" stroke="black" points="384.203,-419.529 394.203,-416.029 384.203,-412.529 384.203,-419.529"/>
</g>
<!-- microtime -->
<g id="node14" class="node"><title>microtime</title>
<ellipse fill="green" stroke="black" cx="596.858" cy="-416.029" rx="58.4896" ry="18"/>
<text text-anchor="middle" x="596.858" y="-412.329" font-family="Times,serif" font-size="14.00">microtime</text>
</g>
<!-- iptime&#45;&gt;microtime -->
<g id="edge10" class="edge"><title>iptime&#45;&gt;microtime</title>
<path fill="none" stroke="black" d="M475.342,-416.029C491.283,-416.029 510.131,-416.029 528.128,-416.029"/>
<polygon fill="black" stroke="black" points="528.305,-419.529 538.304,-416.029 528.304,-412.529 528.305,-419.529"/>
</g>
<!-- m_copym&#45;&gt;m_retry -->
<g id="edge11" class="edge"><title>m_copym&#45;&gt;m_retry</title>
<path fill="none" stroke="black" d="M1199.89,-318.244C1215.99,-314.342 1232.91,-307.842 1245.81,-297.029 1266.21,-279.939 1252.36,-261.349 1271.66,-243.029 1276.71,-238.234 1282.74,-234.235 1289.05,-230.915"/>
<polygon fill="black" stroke="black" points="1290.85,-233.935 1298.42,-226.523 1287.88,-227.596 1290.85,-233.935"/>
</g>
<!-- m_copym&#45;&gt;m_freem -->
<g id="edge12" class="edge"><title>m_copym&#45;&gt;m_freem</title>
<path fill="none" stroke="black" d="M1202.86,-324.029C1225.53,-324.029 1251.97,-324.029 1275.32,-324.029"/>
<polygon fill="black" stroke="black" points="1275.46,-327.529 1285.46,-324.029 1275.46,-320.529 1275.46,-327.529"/>
</g>
<!-- m_retryhdr -->
<g id="node17" class="node"><title>m_retryhdr</title>
<ellipse fill="none" stroke="black" cx="1337.51" cy="-270.029" rx="63.8893" ry="18"/>
<text text-anchor="middle" x="1337.51" y="-266.329" font-family="Times,serif" font-size="14.00">m_retryhdr</text>
</g>
<!-- m_retryhdr&#45;&gt;m_reclaim -->
<g id="edge13" class="edge"><title>m_retryhdr&#45;&gt;m_reclaim</title>
<path fill="none" stroke="black" d="M1392.26,-260.813C1405.89,-258.477 1420.62,-255.95 1434.59,-253.555"/>
<polygon fill="black" stroke="black" points="1435.34,-256.979 1444.61,-251.839 1434.16,-250.079 1435.34,-256.979"/>
</g>
<!-- ifafree -->
<g id="node19" class="node"><title>ifafree</title>
<ellipse fill="none" stroke="black" cx="1337.51" cy="-701.029" rx="40.8928" ry="18"/>
<text text-anchor="middle" x="1337.51" y="-697.329" font-family="Times,serif" font-size="14.00">ifafree</text>
</g>
<!-- rtfree&#45;&gt;ifafree -->
<g id="edge14" class="edge"><title>rtfree&#45;&gt;ifafree</title>
<path fill="none" stroke="black" d="M1185.17,-701.029C1214.01,-701.029 1254.47,-701.029 1286.31,-701.029"/>
<polygon fill="black" stroke="black" points="1286.32,-704.529 1296.32,-701.029 1286.32,-697.529 1286.32,-704.529"/>
</g>
<!-- rt_setgate&#45;&gt;rtalloc1 -->
<g id="edge16" class="edge"><title>rt_setgate&#45;&gt;rtalloc1</title>
<path fill="none" stroke="black" d="M880.572,-655.029C817.305,-655.029 716.443,-655.029 653.848,-655.029"/>
<polygon fill="black" stroke="black" points="653.763,-651.529 643.763,-655.029 653.763,-658.529 653.763,-651.529"/>
</g>
<!-- rt_setgate&#45;&gt;rtfree -->
<g id="edge15" class="edge"><title>rt_setgate&#45;&gt;rtfree</title>
<path fill="none" stroke="black" d="M987.032,-665.467C1021.82,-673.226 1068.94,-683.737 1102.93,-691.317"/>
<polygon fill="black" stroke="black" points="1102.5,-694.808 1113.02,-693.569 1104.03,-687.976 1102.5,-694.808"/>
</g>
<!-- tcp_output -->
<g id="node21" class="node"><title>tcp_output</title>
<ellipse fill="none" stroke="black" cx="77.7445" cy="-582.029" rx="61.99" ry="18"/>
<text text-anchor="middle" x="77.7445" y="-578.329" font-family="Times,serif" font-size="14.00">tcp_output</text>
</g>
<!-- tcp_output&#45;&gt;tcp_mss -->
<g id="edge18" class="edge"><title>tcp_output&#45;&gt;tcp_mss</title>
<path fill="none" stroke="black" d="M111.081,-566.612C140.131,-552.761 182.853,-532.393 213.797,-517.64"/>
<polygon fill="black" stroke="black" points="215.473,-520.718 222.994,-513.255 212.461,-514.399 215.473,-520.718"/>
</g>
<!-- tcp_output&#45;&gt;tcp_trace -->
<g id="edge20" class="edge"><title>tcp_output&#45;&gt;tcp_trace</title>
<path fill="none" stroke="black" d="M91.3951,-564.28C108.598,-540.86 141.082,-499.096 174.587,-469.029 187.509,-457.433 203.118,-446.368 216.984,-437.376"/>
<polygon fill="black" stroke="black" points="219.231,-440.095 225.799,-431.781 215.48,-434.185 219.231,-440.095"/>
</g>
<!-- tcp_output&#45;&gt;m_copym -->
<g id="edge24" class="edge"><title>tcp_output&#45;&gt;m_copym</title>
<path fill="none" stroke="black" d="M80.3484,-563.869C85.3021,-519.825 104.56,-407.196 174.587,-356.029 221.291,-321.904 375.927,-332.029 433.769,-332.029 433.769,-332.029 433.769,-332.029 757.347,-332.029 871.807,-332.029 1005.17,-328.526 1082.3,-326.156"/>
<polygon fill="black" stroke="black" points="1082.45,-329.653 1092.34,-325.844 1082.24,-322.657 1082.45,-329.653"/>
</g>
<!-- tcp_output&#45;&gt;m_retryhdr -->
<g id="edge23" class="edge"><title>tcp_output&#45;&gt;m_retryhdr</title>
<path fill="none" stroke="black" d="M81.453,-564.035C88.5275,-524.065 111.588,-428.103 174.587,-386.029 222.575,-353.98 376.064,-370.029 433.769,-370.029 433.769,-370.029 433.769,-370.029 940.234,-370.029 1076.31,-370.029 1132.99,-427.099 1245.81,-351.029 1267.87,-336.154 1252.36,-315.349 1271.66,-297.029 1275.38,-293.499 1279.63,-290.4 1284.13,-287.685"/>
<polygon fill="black" stroke="black" points="1285.85,-290.73 1293.02,-282.928 1282.55,-284.558 1285.85,-290.73"/>
</g>
<!-- ip_output -->
<g id="node22" class="node"><title>ip_output</title>
<ellipse fill="lightgrey" stroke="black" cx="253.832" cy="-265.029" rx="55.4913" ry="18"/>
<text text-anchor="middle" x="253.832" y="-261.329" font-family="Times,serif" font-size="14.00">ip_output</text>
</g>
<!-- tcp_output&#45;&gt;ip_output -->
<g id="edge19" class="edge"><title>tcp_output&#45;&gt;ip_output</title>
<path fill="none" stroke="black" d="M81.38,-563.826C88.7713,-518.143 113.306,-396.69 174.587,-318.029 184.844,-304.863 199.303,-293.793 213.005,-285.231"/>
<polygon fill="black" stroke="black" points="215.044,-288.09 221.849,-279.97 211.465,-282.074 215.044,-288.09"/>
</g>
<!-- m_free -->
<g id="node23" class="node"><title>m_free</title>
<ellipse fill="none" stroke="black" cx="1147.47" cy="-216.029" rx="42.7926" ry="18"/>
<text text-anchor="middle" x="1147.47" y="-212.329" font-family="Times,serif" font-size="14.00">m_free</text>
</g>
<!-- tcp_output&#45;&gt;m_free -->
<g id="edge21" class="edge"><title>tcp_output&#45;&gt;m_free</title>
<path fill="none" stroke="black" d="M79.0733,-563.804C81.0375,-477.479 94.0768,-110.916 174.587,-39.0289 260.675,37.8384 318.358,-23.0289 433.769,-23.0289 433.769,-23.0289 433.769,-23.0289 757.347,-23.0289 908.592,-23.0289 1061.7,-141.495 1120.91,-192.8"/>
<polygon fill="black" stroke="black" points="1118.81,-195.61 1128.63,-199.574 1123.42,-190.348 1118.81,-195.61"/>
</g>
<!-- tcp_quench -->
<g id="node24" class="node"><title>tcp_quench</title>
<ellipse fill="none" stroke="black" cx="253.832" cy="-152.029" rx="64.9885" ry="18"/>
<text text-anchor="middle" x="253.832" y="-148.329" font-family="Times,serif" font-size="14.00">tcp_quench</text>
</g>
<!-- tcp_output&#45;&gt;tcp_quench -->
<g id="edge22" class="edge"><title>tcp_output&#45;&gt;tcp_quench</title>
<path fill="none" stroke="black" d="M78.9517,-563.657C80.4681,-505.564 91.9245,-322.751 174.587,-205.029 183.868,-191.811 197.581,-180.922 210.945,-172.525"/>
<polygon fill="black" stroke="black" points="212.817,-175.484 219.626,-167.367 209.241,-169.466 212.817,-175.484"/>
</g>
<!-- tcp_setpersist -->
<g id="node25" class="node"><title>tcp_setpersist</title>
<ellipse fill="none" stroke="black" cx="253.832" cy="-582.029" rx="77.1866" ry="18"/>
<text text-anchor="middle" x="253.832" y="-578.329" font-family="Times,serif" font-size="14.00">tcp_setpersist</text>
</g>
<!-- tcp_output&#45;&gt;tcp_setpersist -->
<g id="edge25" class="edge"><title>tcp_output&#45;&gt;tcp_setpersist</title>
<path fill="none" stroke="black" d="M139.632,-582.029C148.252,-582.029 157.249,-582.029 166.24,-582.029"/>
<polygon fill="black" stroke="black" points="166.368,-585.529 176.368,-582.029 166.368,-578.529 166.368,-585.529"/>
</g>
<!-- in_cksum -->
<g id="node26" class="node"><title>in_cksum</title>
<ellipse fill="none" stroke="black" cx="253.832" cy="-69.0289" rx="55.4913" ry="18"/>
<text text-anchor="middle" x="253.832" y="-65.3289" font-family="Times,serif" font-size="14.00">in_cksum</text>
</g>
<!-- tcp_output&#45;&gt;in_cksum -->
<g id="edge26" class="edge"><title>tcp_output&#45;&gt;in_cksum</title>
<path fill="none" stroke="black" d="M80.6996,-563.823C89.122,-487.936 124.177,-197.249 174.587,-122.029 183.803,-108.277 197.909,-97.132 211.619,-88.6755"/>
<polygon fill="black" stroke="black" points="213.628,-91.5563 220.516,-83.5061 210.111,-85.5038 213.628,-91.5563"/>
</g>
<!-- m_copydata -->
<g id="node27" class="node"><title>m_copydata</title>
<ellipse fill="none" stroke="black" cx="1147.47" cy="-270.029" rx="66.8882" ry="18"/>
<text text-anchor="middle" x="1147.47" y="-266.329" font-family="Times,serif" font-size="14.00">m_copydata</text>
</g>
<!-- tcp_output&#45;&gt;m_copydata -->
<g id="edge27" class="edge"><title>tcp_output&#45;&gt;m_copydata</title>
<path fill="none" stroke="black" d="M81.014,-563.75C89.5274,-498.384 121.801,-277.845 174.587,-235.029 219.404,-198.677 376.064,-219.029 433.769,-219.029 433.769,-219.029 433.769,-219.029 757.347,-219.029 873.903,-219.029 1008.44,-241.803 1084.89,-256.914"/>
<polygon fill="black" stroke="black" points="1084.33,-260.372 1094.82,-258.9 1085.7,-253.508 1084.33,-260.372"/>
</g>
<!-- ifa_ifwithnet -->
<g id="node28" class="node"><title>ifa_ifwithnet</title>
<ellipse fill="none" stroke="black" cx="1147.47" cy="-866.029" rx="69.5877" ry="18"/>
<text text-anchor="middle" x="1147.47" y="-862.329" font-family="Times,serif" font-size="14.00">ifa_ifwithnet</text>
</g>
<!-- rn_refines -->
<g id="node29" class="node"><title>rn_refines</title>
<ellipse fill="none" stroke="black" cx="1337.51" cy="-866.029" rx="57.6901" ry="18"/>
<text text-anchor="middle" x="1337.51" y="-862.329" font-family="Times,serif" font-size="14.00">rn_refines</text>
</g>
<!-- ifa_ifwithnet&#45;&gt;rn_refines -->
<g id="edge28" class="edge"><title>ifa_ifwithnet&#45;&gt;rn_refines</title>
<path fill="none" stroke="black" d="M1217.15,-866.029C1234.09,-866.029 1252.22,-866.029 1269.1,-866.029"/>
<polygon fill="black" stroke="black" points="1269.43,-869.529 1279.43,-866.029 1269.43,-862.529 1269.43,-869.529"/>
</g>
<!-- ifa_ifwithroute&#45;&gt;rtalloc1 -->
<g id="edge33" class="edge"><title>ifa_ifwithroute&#45;&gt;rtalloc1</title>
<path fill="none" stroke="black" d="M860.692,-780.19C808.193,-775.589 738.604,-764.121 683.353,-736.029 657.116,-722.689 633.353,-698.739 617.577,-680.33"/>
<polygon fill="black" stroke="black" points="619.998,-677.767 610.911,-672.32 614.617,-682.245 619.998,-677.767"/>
</g>
<!-- ifa_ifwithroute&#45;&gt;ifa_ifwithnet -->
<g id="edge29" class="edge"><title>ifa_ifwithroute&#45;&gt;ifa_ifwithnet</title>
<path fill="none" stroke="black" d="M971.111,-799.639C992.604,-810.807 1022.14,-825.376 1049.13,-836.029 1061.97,-841.097 1076.03,-845.863 1089.37,-850.041"/>
<polygon fill="black" stroke="black" points="1088.34,-853.387 1098.93,-852.975 1090.39,-846.695 1088.34,-853.387"/>
</g>
<!-- ifa_ifwithdstaddr -->
<g id="node31" class="node"><title>ifa_ifwithdstaddr</title>
<ellipse fill="none" stroke="black" cx="1147.47" cy="-1028.03" rx="90.1842" ry="18"/>
<text text-anchor="middle" x="1147.47" y="-1024.33" font-family="Times,serif" font-size="14.00">ifa_ifwithdstaddr</text>
</g>
<!-- ifa_ifwithroute&#45;&gt;ifa_ifwithdstaddr -->
<g id="edge30" class="edge"><title>ifa_ifwithroute&#45;&gt;ifa_ifwithdstaddr</title>
<path fill="none" stroke="black" d="M943.992,-801.093C953.648,-842.891 983.329,-946.828 1049.13,-1001.03 1054.76,-1005.67 1061.13,-1009.51 1067.85,-1012.7"/>
<polygon fill="black" stroke="black" points="1066.62,-1015.98 1077.2,-1016.64 1069.35,-1009.53 1066.62,-1015.98"/>
</g>
<!-- ifa_ifwithaddr -->
<g id="node32" class="node"><title>ifa_ifwithaddr</title>
<ellipse fill="none" stroke="black" cx="1147.47" cy="-974.029" rx="75.2868" ry="18"/>
<text text-anchor="middle" x="1147.47" y="-970.329" font-family="Times,serif" font-size="14.00">ifa_ifwithaddr</text>
</g>
<!-- ifa_ifwithroute&#45;&gt;ifa_ifwithaddr -->
<g id="edge31" class="edge"><title>ifa_ifwithroute&#45;&gt;ifa_ifwithaddr</title>
<path fill="none" stroke="black" d="M947.18,-801.164C961.137,-835.132 995.874,-908.396 1049.13,-947.029 1056.87,-952.647 1065.73,-957.096 1074.89,-960.621"/>
<polygon fill="black" stroke="black" points="1073.9,-963.984 1084.5,-963.968 1076.21,-957.374 1073.9,-963.984"/>
</g>
<!-- ifaof_ifpforaddr -->
<g id="node33" class="node"><title>ifaof_ifpforaddr</title>
<ellipse fill="none" stroke="black" cx="1147.47" cy="-920.029" rx="83.3857" ry="18"/>
<text text-anchor="middle" x="1147.47" y="-916.329" font-family="Times,serif" font-size="14.00">ifaof_ifpforaddr</text>
</g>
<!-- ifa_ifwithroute&#45;&gt;ifaof_ifpforaddr -->
<g id="edge32" class="edge"><title>ifa_ifwithroute&#45;&gt;ifaof_ifpforaddr</title>
<path fill="none" stroke="black" d="M953.223,-801.114C971.751,-825.591 1008.1,-868.963 1049.13,-893.029 1057.21,-897.771 1066.16,-901.709 1075.26,-904.974"/>
<polygon fill="black" stroke="black" points="1074.18,-908.302 1084.78,-908.137 1076.39,-901.66 1074.18,-908.302"/>
</g>
<!-- sbappendaddr&#45;&gt;m_retry -->
<g id="edge42" class="edge"><title>sbappendaddr&#45;&gt;m_retry</title>
<path fill="none" stroke="black" d="M1217.45,-535.15C1228.31,-530.994 1238.38,-524.902 1245.81,-516.029 1284.94,-469.316 1235.5,-292.077 1271.66,-243.029 1275.7,-237.555 1281.05,-233.185 1286.96,-229.698"/>
<polygon fill="black" stroke="black" points="1288.56,-232.812 1295.92,-225.194 1285.41,-226.557 1288.56,-232.812"/>
</g>
</g>
</svg>

