<?xml version="1.0" encoding="UTF-8" standalone="no"?>
<!DOCTYPE svg PUBLIC "-//W3C//DTD SVG 1.1//EN"
 "http://www.w3.org/Graphics/SVG/1.1/DTD/svg11.dtd">
<!-- Generated by graphviz version 2.38.0 (20140413.2041)
 -->
<!-- Title: G Pages: 1 -->
<svg width="2383pt" height="1502pt"
 viewBox="0.00 0.00 2382.61 1502.06" xmlns="http://www.w3.org/2000/svg" xmlns:xlink="http://www.w3.org/1999/xlink">
<g id="graph0" class="graph" transform="scale(1 1) rotate(0) translate(4 1498.06)">
<title>G</title>
<polygon fill="white" stroke="none" points="-4,4 -4,-1498.06 2378.61,-1498.06 2378.61,4 -4,4"/>
<!-- ifa_ifwithnet -->
<g id="node1" class="node"><title>ifa_ifwithnet</title>
<ellipse fill="none" stroke="black" cx="1789.96" cy="-392.87" rx="75.8212" ry="26.7407"/>
<text text-anchor="middle" x="1789.96" y="-396.67" font-family="Times,serif" font-size="14.00">ifa_ifwithnet</text>
<text text-anchor="middle" x="1789.96" y="-381.67" font-family="Times,serif" font-size="14.00">net/if.c</text>
</g>
<!-- rn_refines -->
<g id="node2" class="node"><title>rn_refines</title>
<ellipse fill="none" stroke="black" cx="2039.5" cy="-392.87" rx="66.4361" ry="26.7407"/>
<text text-anchor="middle" x="2039.5" y="-396.67" font-family="Times,serif" font-size="14.00">rn_refines</text>
<text text-anchor="middle" x="2039.5" y="-381.67" font-family="Times,serif" font-size="14.00">net/radix.c</text>
</g>
<!-- ifa_ifwithnet&#45;&gt;rn_refines -->
<g id="edge1" class="edge"><title>ifa_ifwithnet&#45;&gt;rn_refines</title>
<path fill="none" stroke="black" d="M1865.9,-392.87C1896.46,-392.87 1931.74,-392.87 1962.41,-392.87"/>
<polygon fill="black" stroke="black" points="1962.63,-396.37 1972.63,-392.87 1962.63,-389.37 1962.63,-396.37"/>
</g>
<!-- rt_missmsg -->
<g id="node3" class="node"><title>rt_missmsg</title>
<ellipse fill="none" stroke="black" cx="1286.62" cy="-866.87" rx="72.6644" ry="26.7407"/>
<text text-anchor="middle" x="1286.62" y="-870.67" font-family="Times,serif" font-size="14.00">rt_missmsg</text>
<text text-anchor="middle" x="1286.62" y="-855.67" font-family="Times,serif" font-size="14.00">net/rtsock.c</text>
</g>
<!-- rt_msg1 -->
<g id="node4" class="node"><title>rt_msg1</title>
<ellipse fill="lightgrey" stroke="black" cx="1531.93" cy="-904.87" rx="72.6644" ry="26.7407"/>
<text text-anchor="middle" x="1531.93" y="-908.67" font-family="Times,serif" font-size="14.00">rt_msg1</text>
<text text-anchor="middle" x="1531.93" y="-893.67" font-family="Times,serif" font-size="14.00">net/rtsock.c</text>
</g>
<!-- rt_missmsg&#45;&gt;rt_msg1 -->
<g id="edge2" class="edge"><title>rt_missmsg&#45;&gt;rt_msg1</title>
<path fill="none" stroke="black" d="M1354.11,-877.254C1385.08,-882.092 1422.12,-887.876 1454.27,-892.898"/>
<polygon fill="black" stroke="black" points="1454.1,-896.414 1464.52,-894.499 1455.18,-889.498 1454.1,-896.414"/>
</g>
<!-- raw_input -->
<g id="node5" class="node"><title>raw_input</title>
<ellipse fill="none" stroke="black" cx="1531.93" cy="-1124.87" rx="98.0761" ry="26.7407"/>
<text text-anchor="middle" x="1531.93" y="-1128.67" font-family="Times,serif" font-size="14.00">raw_input</text>
<text text-anchor="middle" x="1531.93" y="-1113.67" font-family="Times,serif" font-size="14.00">net/raw_usrreq.c</text>
</g>
<!-- rt_missmsg&#45;&gt;raw_input -->
<g id="edge3" class="edge"><title>rt_missmsg&#45;&gt;raw_input</title>
<path fill="none" stroke="black" d="M1315.75,-891.996C1338.01,-913.22 1368.46,-945.428 1387.74,-978.87 1413.43,-1023.44 1387.51,-1052.36 1423.74,-1088.87 1429.7,-1094.88 1436.7,-1099.89 1444.21,-1104.06"/>
<polygon fill="black" stroke="black" points="1442.72,-1107.23 1453.23,-1108.58 1445.86,-1100.97 1442.72,-1107.23"/>
</g>
<!-- m_copym -->
<g id="node10" class="node"><title>m_copym</title>
<ellipse fill="none" stroke="black" cx="1789.96" cy="-1251.87" rx="99.9045" ry="26.7407"/>
<text text-anchor="middle" x="1789.96" y="-1255.67" font-family="Times,serif" font-size="14.00">m_copym</text>
<text text-anchor="middle" x="1789.96" y="-1240.67" font-family="Times,serif" font-size="14.00">kern/uipc_mbuf.c</text>
</g>
<!-- raw_input&#45;&gt;m_copym -->
<g id="edge72" class="edge"><title>raw_input&#45;&gt;m_copym</title>
<path fill="none" stroke="black" d="M1606.86,-1142.4C1618.68,-1147.2 1630.25,-1153.25 1640.11,-1160.87 1663.24,-1178.73 1652.86,-1198.19 1676.11,-1215.87 1684.03,-1221.89 1692.99,-1226.92 1702.31,-1231.12"/>
<polygon fill="black" stroke="black" points="1701.14,-1234.43 1711.72,-1235.05 1703.84,-1227.97 1701.14,-1234.43"/>
</g>
<!-- sbappendaddr -->
<g id="node13" class="node"><title>sbappendaddr</title>
<ellipse fill="none" stroke="black" cx="1789.96" cy="-1179.87" rx="113.689" ry="26.7407"/>
<text text-anchor="middle" x="1789.96" y="-1183.67" font-family="Times,serif" font-size="14.00">sbappendaddr</text>
<text text-anchor="middle" x="1789.96" y="-1168.67" font-family="Times,serif" font-size="14.00">kern/uipc_socket2.c</text>
</g>
<!-- raw_input&#45;&gt;sbappendaddr -->
<g id="edge70" class="edge"><title>raw_input&#45;&gt;sbappendaddr</title>
<path fill="none" stroke="black" d="M1609.74,-1141.37C1636.62,-1147.15 1667.11,-1153.69 1695.21,-1159.73"/>
<polygon fill="black" stroke="black" points="1694.53,-1163.17 1705.05,-1161.84 1696,-1156.32 1694.53,-1163.17"/>
</g>
<!-- sowakeup -->
<g id="node47" class="node"><title>sowakeup</title>
<ellipse fill="lightgrey" stroke="black" cx="1789.96" cy="-1107.87" rx="113.689" ry="26.7407"/>
<text text-anchor="middle" x="1789.96" y="-1111.67" font-family="Times,serif" font-size="14.00">sowakeup</text>
<text text-anchor="middle" x="1789.96" y="-1096.67" font-family="Times,serif" font-size="14.00">kern/uipc_socket2.c</text>
</g>
<!-- raw_input&#45;&gt;sowakeup -->
<g id="edge71" class="edge"><title>raw_input&#45;&gt;sowakeup</title>
<path fill="none" stroke="black" d="M1627.53,-1118.59C1641.29,-1117.67 1655.6,-1116.72 1669.76,-1115.78"/>
<polygon fill="black" stroke="black" points="1670.29,-1119.26 1680.04,-1115.1 1669.83,-1112.27 1670.29,-1119.26"/>
</g>
<!-- ip_forward -->
<g id="node6" class="node"><title>ip_forward</title>
<ellipse fill="none" stroke="black" cx="577.581" cy="-1052.87" rx="101.233" ry="26.7407"/>
<text text-anchor="middle" x="577.581" y="-1056.67" font-family="Times,serif" font-size="14.00">ip_forward</text>
<text text-anchor="middle" x="577.581" y="-1041.67" font-family="Times,serif" font-size="14.00">netinet/ip_input.c</text>
</g>
<!-- ip_output -->
<g id="node7" class="node"><title>ip_output</title>
<ellipse fill="lightgrey" stroke="black" cx="1531.93" cy="-1196.87" rx="108.375" ry="26.7407"/>
<text text-anchor="middle" x="1531.93" y="-1200.67" font-family="Times,serif" font-size="14.00">ip_output</text>
<text text-anchor="middle" x="1531.93" y="-1185.67" font-family="Times,serif" font-size="14.00">netinet/ip_output.c</text>
</g>
<!-- ip_forward&#45;&gt;ip_output -->
<g id="edge4" class="edge"><title>ip_forward&#45;&gt;ip_output</title>
<path fill="none" stroke="black" d="M619.229,-1077.46C645.748,-1092.8 681.486,-1112.15 714.698,-1125.87 916.591,-1209.24 969.383,-1235.2 1185.51,-1266.87 1274.44,-1279.9 1304.22,-1300.08 1387.74,-1266.87 1408.19,-1258.74 1404.87,-1244.19 1423.74,-1232.87 1431.53,-1228.2 1440,-1224.04 1448.66,-1220.36"/>
<polygon fill="black" stroke="black" points="1450.13,-1223.54 1458.1,-1216.55 1447.52,-1217.04 1450.13,-1223.54"/>
</g>
<!-- in_canforward -->
<g id="node8" class="node"><title>in_canforward</title>
<ellipse fill="none" stroke="black" cx="1286.62" cy="-1230.87" rx="84.2917" ry="26.7407"/>
<text text-anchor="middle" x="1286.62" y="-1234.67" font-family="Times,serif" font-size="14.00">in_canforward</text>
<text text-anchor="middle" x="1286.62" y="-1219.67" font-family="Times,serif" font-size="14.00">netinet/in.c</text>
</g>
<!-- ip_forward&#45;&gt;in_canforward -->
<g id="edge5" class="edge"><title>ip_forward&#45;&gt;in_canforward</title>
<path fill="none" stroke="black" d="M651.584,-1071.25C786.43,-1105.2 1073.25,-1177.4 1210.02,-1211.84"/>
<polygon fill="black" stroke="black" points="1209.45,-1215.3 1220,-1214.35 1211.16,-1208.51 1209.45,-1215.3"/>
</g>
<!-- rtalloc -->
<g id="node9" class="node"><title>rtalloc</title>
<ellipse fill="none" stroke="black" cx="814.4" cy="-784.87" rx="67.3507" ry="26.7407"/>
<text text-anchor="middle" x="814.4" y="-788.67" font-family="Times,serif" font-size="14.00">rtalloc</text>
<text text-anchor="middle" x="814.4" y="-773.67" font-family="Times,serif" font-size="14.00">net/route.c</text>
</g>
<!-- ip_forward&#45;&gt;rtalloc -->
<g id="edge6" class="edge"><title>ip_forward&#45;&gt;rtalloc</title>
<path fill="none" stroke="black" d="M601.524,-1026.69C644.532,-977.6 737.183,-871.857 784.424,-817.94"/>
<polygon fill="black" stroke="black" points="787.095,-820.203 791.053,-810.375 781.83,-815.589 787.095,-820.203"/>
</g>
<!-- ip_forward&#45;&gt;m_copym -->
<g id="edge7" class="edge"><title>ip_forward&#45;&gt;m_copym</title>
<path fill="none" stroke="black" d="M602.701,-1079.35C667.6,-1147.54 854.233,-1323.87 1048.8,-1323.87 1048.8,-1323.87 1048.8,-1323.87 1287.62,-1323.87 1444.51,-1323.87 1489.82,-1349.88 1640.11,-1304.87 1657.86,-1299.56 1659.07,-1291.12 1676.11,-1283.87 1685.56,-1279.85 1695.65,-1276.18 1705.78,-1272.86"/>
<polygon fill="black" stroke="black" points="1707,-1276.15 1715.48,-1269.8 1704.89,-1269.48 1707,-1276.15"/>
</g>
<!-- rtfree -->
<g id="node11" class="node"><title>rtfree</title>
<ellipse fill="none" stroke="black" cx="1789.96" cy="-805.87" rx="67.3507" ry="26.7407"/>
<text text-anchor="middle" x="1789.96" y="-809.67" font-family="Times,serif" font-size="14.00">rtfree</text>
<text text-anchor="middle" x="1789.96" y="-794.67" font-family="Times,serif" font-size="14.00">net/route.c</text>
</g>
<!-- ip_forward&#45;&gt;rtfree -->
<g id="edge8" class="edge"><title>ip_forward&#45;&gt;rtfree</title>
<path fill="none" stroke="black" d="M627.269,-1029.41C652.749,-1018.11 684.794,-1005.41 714.698,-997.87 918.829,-946.398 975.37,-958.599 1185.51,-945.87 1198.11,-945.106 1628.36,-945.482 1640.11,-940.87 1692.21,-920.434 1737.46,-872.606 1763.99,-839.735"/>
<polygon fill="black" stroke="black" points="1766.86,-841.741 1770.32,-831.727 1761.37,-837.399 1766.86,-841.741"/>
</g>
<!-- icmp_error -->
<g id="node12" class="node"><title>icmp_error</title>
<ellipse fill="none" stroke="black" cx="814.4" cy="-1033.87" rx="99.9045" ry="26.7407"/>
<text text-anchor="middle" x="814.4" y="-1037.67" font-family="Times,serif" font-size="14.00">icmp_error</text>
<text text-anchor="middle" x="814.4" y="-1022.67" font-family="Times,serif" font-size="14.00">netinet/ip_icmp.c</text>
</g>
<!-- ip_forward&#45;&gt;icmp_error -->
<g id="edge9" class="edge"><title>ip_forward&#45;&gt;icmp_error</title>
<path fill="none" stroke="black" d="M674.43,-1045.11C685.595,-1044.21 697.031,-1043.29 708.312,-1042.37"/>
<polygon fill="black" stroke="black" points="708.933,-1045.83 718.618,-1041.54 708.368,-1038.86 708.933,-1045.83"/>
</g>
<!-- rtalloc1 -->
<g id="node21" class="node"><title>rtalloc1</title>
<ellipse fill="none" stroke="black" cx="1049.8" cy="-784.87" rx="67.3507" ry="26.7407"/>
<text text-anchor="middle" x="1049.8" y="-788.67" font-family="Times,serif" font-size="14.00">rtalloc1</text>
<text text-anchor="middle" x="1049.8" y="-773.67" font-family="Times,serif" font-size="14.00">net/route.c</text>
</g>
<!-- rtalloc&#45;&gt;rtalloc1 -->
<g id="edge49" class="edge"><title>rtalloc&#45;&gt;rtalloc1</title>
<path fill="none" stroke="black" d="M881.66,-784.87C909.871,-784.87 942.951,-784.87 972.205,-784.87"/>
<polygon fill="black" stroke="black" points="972.378,-788.37 982.378,-784.87 972.378,-781.37 972.378,-788.37"/>
</g>
<!-- m_retry -->
<g id="node14" class="node"><title>m_retry</title>
<ellipse fill="none" stroke="black" cx="2039.5" cy="-1179.87" rx="99.9045" ry="26.7407"/>
<text text-anchor="middle" x="2039.5" y="-1183.67" font-family="Times,serif" font-size="14.00">m_retry</text>
<text text-anchor="middle" x="2039.5" y="-1168.67" font-family="Times,serif" font-size="14.00">kern/uipc_mbuf.c</text>
</g>
<!-- m_copym&#45;&gt;m_retry -->
<g id="edge35" class="edge"><title>m_copym&#45;&gt;m_retry</title>
<path fill="none" stroke="black" d="M1858.27,-1232.29C1890.2,-1223.01 1928.5,-1211.86 1961.57,-1202.25"/>
<polygon fill="black" stroke="black" points="1962.58,-1205.6 1971.2,-1199.45 1960.62,-1198.88 1962.58,-1205.6"/>
</g>
<!-- ifafree -->
<g id="node42" class="node"><title>ifafree</title>
<ellipse fill="none" stroke="black" cx="2039.5" cy="-805.87" rx="67.3507" ry="26.7407"/>
<text text-anchor="middle" x="2039.5" y="-809.67" font-family="Times,serif" font-size="14.00">ifafree</text>
<text text-anchor="middle" x="2039.5" y="-794.67" font-family="Times,serif" font-size="14.00">net/route.c</text>
</g>
<!-- rtfree&#45;&gt;ifafree -->
<g id="edge50" class="edge"><title>rtfree&#45;&gt;ifafree</title>
<path fill="none" stroke="black" d="M1857.3,-805.87C1889.48,-805.87 1928.33,-805.87 1961.79,-805.87"/>
<polygon fill="black" stroke="black" points="1961.98,-809.37 1971.98,-805.87 1961.98,-802.37 1961.98,-809.37"/>
</g>
<!-- m_gethdr -->
<g id="node40" class="node"><title>m_gethdr</title>
<ellipse fill="none" stroke="black" cx="1286.62" cy="-1014.87" rx="99.9045" ry="26.7407"/>
<text text-anchor="middle" x="1286.62" y="-1018.67" font-family="Times,serif" font-size="14.00">m_gethdr</text>
<text text-anchor="middle" x="1286.62" y="-1003.67" font-family="Times,serif" font-size="14.00">kern/uipc_mbuf.c</text>
</g>
<!-- icmp_error&#45;&gt;m_gethdr -->
<g id="edge56" class="edge"><title>icmp_error&#45;&gt;m_gethdr</title>
<path fill="none" stroke="black" d="M913.116,-1029.92C990.271,-1026.8 1097.84,-1022.46 1177.56,-1019.24"/>
<polygon fill="black" stroke="black" points="1177.78,-1022.73 1187.63,-1018.83 1177.49,-1015.74 1177.78,-1022.73"/>
</g>
<!-- icmp_reflect -->
<g id="node44" class="node"><title>icmp_reflect</title>
<ellipse fill="none" stroke="black" cx="1049.8" cy="-1081.87" rx="99.9045" ry="26.7407"/>
<text text-anchor="middle" x="1049.8" y="-1085.67" font-family="Times,serif" font-size="14.00">icmp_reflect</text>
<text text-anchor="middle" x="1049.8" y="-1070.67" font-family="Times,serif" font-size="14.00">netinet/ip_icmp.c</text>
</g>
<!-- icmp_error&#45;&gt;icmp_reflect -->
<g id="edge57" class="edge"><title>icmp_error&#45;&gt;icmp_reflect</title>
<path fill="none" stroke="black" d="M894.094,-1050.05C915.326,-1054.42 938.442,-1059.17 960.177,-1063.64"/>
<polygon fill="black" stroke="black" points="959.554,-1067.09 970.054,-1065.67 960.964,-1060.23 959.554,-1067.09"/>
</g>
<!-- sbappendaddr&#45;&gt;m_retry -->
<g id="edge10" class="edge"><title>sbappendaddr&#45;&gt;m_retry</title>
<path fill="none" stroke="black" d="M1903.86,-1179.87C1912.48,-1179.87 1921.17,-1179.87 1929.75,-1179.87"/>
<polygon fill="black" stroke="black" points="1929.78,-1183.37 1939.78,-1179.87 1929.78,-1176.37 1929.78,-1183.37"/>
</g>
<!-- m_reclaim -->
<g id="node20" class="node"><title>m_reclaim</title>
<ellipse fill="none" stroke="black" cx="2274.91" cy="-1133.87" rx="99.9045" ry="26.7407"/>
<text text-anchor="middle" x="2274.91" y="-1137.67" font-family="Times,serif" font-size="14.00">m_reclaim</text>
<text text-anchor="middle" x="2274.91" y="-1122.67" font-family="Times,serif" font-size="14.00">kern/uipc_mbuf.c</text>
</g>
<!-- m_retry&#45;&gt;m_reclaim -->
<g id="edge14" class="edge"><title>m_retry&#45;&gt;m_reclaim</title>
<path fill="none" stroke="black" d="M2120.5,-1164.1C2141.01,-1160.06 2163.2,-1155.69 2184.16,-1151.56"/>
<polygon fill="black" stroke="black" points="2184.88,-1154.98 2194.01,-1149.62 2183.53,-1148.12 2184.88,-1154.98"/>
</g>
<!-- ip_freef -->
<g id="node15" class="node"><title>ip_freef</title>
<ellipse fill="none" stroke="black" cx="339.349" cy="-350.87" rx="101.233" ry="26.7407"/>
<text text-anchor="middle" x="339.349" y="-354.67" font-family="Times,serif" font-size="14.00">ip_freef</text>
<text text-anchor="middle" x="339.349" y="-339.67" font-family="Times,serif" font-size="14.00">netinet/ip_input.c</text>
</g>
<!-- ip_deq -->
<g id="node16" class="node"><title>ip_deq</title>
<ellipse fill="none" stroke="black" cx="577.581" cy="-350.87" rx="101.233" ry="26.7407"/>
<text text-anchor="middle" x="577.581" y="-354.67" font-family="Times,serif" font-size="14.00">ip_deq</text>
<text text-anchor="middle" x="577.581" y="-339.67" font-family="Times,serif" font-size="14.00">netinet/ip_input.c</text>
</g>
<!-- ip_freef&#45;&gt;ip_deq -->
<g id="edge11" class="edge"><title>ip_freef&#45;&gt;ip_deq</title>
<path fill="none" stroke="black" d="M440.533,-350.87C449.029,-350.87 457.652,-350.87 466.22,-350.87"/>
<polygon fill="black" stroke="black" points="466.242,-354.37 476.242,-350.87 466.242,-347.37 466.242,-354.37"/>
</g>
<!-- _remque -->
<g id="node17" class="node"><title>_remque</title>
<ellipse fill="green" stroke="black" cx="577.581" cy="-287.87" rx="51.1914" ry="18"/>
<text text-anchor="middle" x="577.581" y="-284.17" font-family="Times,serif" font-size="14.00">_remque</text>
</g>
<!-- ip_freef&#45;&gt;_remque -->
<g id="edge12" class="edge"><title>ip_freef&#45;&gt;_remque</title>
<path fill="none" stroke="black" d="M411.226,-331.968C448.299,-322.081 492.805,-310.212 526.3,-301.279"/>
<polygon fill="black" stroke="black" points="527.561,-304.565 536.322,-298.607 525.757,-297.802 527.561,-304.565"/>
</g>
<!-- iptime -->
<g id="node18" class="node"><title>iptime</title>
<ellipse fill="none" stroke="black" cx="577.581" cy="-536.87" rx="99.9045" ry="26.7407"/>
<text text-anchor="middle" x="577.581" y="-540.67" font-family="Times,serif" font-size="14.00">iptime</text>
<text text-anchor="middle" x="577.581" y="-525.67" font-family="Times,serif" font-size="14.00">netinet/ip_icmp.c</text>
</g>
<!-- microtime -->
<g id="node19" class="node"><title>microtime</title>
<ellipse fill="green" stroke="black" cx="814.4" cy="-536.87" rx="58.4896" ry="18"/>
<text text-anchor="middle" x="814.4" y="-533.17" font-family="Times,serif" font-size="14.00">microtime</text>
</g>
<!-- iptime&#45;&gt;microtime -->
<g id="edge13" class="edge"><title>iptime&#45;&gt;microtime</title>
<path fill="none" stroke="black" d="M677.485,-536.87C700.428,-536.87 724.338,-536.87 745.592,-536.87"/>
<polygon fill="black" stroke="black" points="745.796,-540.37 755.796,-536.87 745.796,-533.37 745.796,-540.37"/>
</g>
<!-- rtalloc1&#45;&gt;rt_missmsg -->
<g id="edge16" class="edge"><title>rtalloc1&#45;&gt;rt_missmsg</title>
<path fill="none" stroke="black" d="M1100.89,-802.361C1136.78,-814.892 1185.33,-831.849 1223.66,-845.233"/>
<polygon fill="black" stroke="black" points="1222.58,-848.561 1233.17,-848.554 1224.88,-841.952 1222.58,-848.561"/>
</g>
<!-- rtrequest -->
<g id="node22" class="node"><title>rtrequest</title>
<ellipse fill="none" stroke="black" cx="1286.62" cy="-756.87" rx="67.3507" ry="26.7407"/>
<text text-anchor="middle" x="1286.62" y="-760.67" font-family="Times,serif" font-size="14.00">rtrequest</text>
<text text-anchor="middle" x="1286.62" y="-745.67" font-family="Times,serif" font-size="14.00">net/route.c</text>
</g>
<!-- rtalloc1&#45;&gt;rtrequest -->
<g id="edge15" class="edge"><title>rtalloc1&#45;&gt;rtrequest</title>
<path fill="none" stroke="black" d="M1114.35,-777.293C1144.5,-773.698 1180.7,-769.381 1212.04,-765.645"/>
<polygon fill="black" stroke="black" points="1212.51,-769.113 1222.03,-764.453 1211.68,-762.162 1212.51,-769.113"/>
</g>
<!-- rtrequest&#45;&gt;rtfree -->
<g id="edge62" class="edge"><title>rtrequest&#45;&gt;rtfree</title>
<path fill="none" stroke="black" d="M1352.14,-763.176C1444.98,-772.25 1615.88,-788.954 1714.14,-798.558"/>
<polygon fill="black" stroke="black" points="1714,-802.06 1724.29,-799.55 1714.68,-795.094 1714,-802.06"/>
</g>
<!-- rt_setgate -->
<g id="node41" class="node"><title>rt_setgate</title>
<ellipse fill="none" stroke="black" cx="1531.93" cy="-832.87" rx="67.3507" ry="26.7407"/>
<text text-anchor="middle" x="1531.93" y="-836.67" font-family="Times,serif" font-size="14.00">rt_setgate</text>
<text text-anchor="middle" x="1531.93" y="-821.67" font-family="Times,serif" font-size="14.00">net/route.c</text>
</g>
<!-- rtrequest&#45;&gt;rt_setgate -->
<g id="edge60" class="edge"><title>rtrequest&#45;&gt;rt_setgate</title>
<path fill="none" stroke="black" d="M1340.12,-773.267C1377.93,-785.079 1429.09,-801.06 1468.92,-813.501"/>
<polygon fill="black" stroke="black" points="1467.94,-816.861 1478.53,-816.502 1470.02,-810.18 1467.94,-816.861"/>
</g>
<!-- ifa_ifwithroute -->
<g id="node43" class="node"><title>ifa_ifwithroute</title>
<ellipse fill="none" stroke="black" cx="1531.93" cy="-536.87" rx="86.0347" ry="26.7407"/>
<text text-anchor="middle" x="1531.93" y="-540.67" font-family="Times,serif" font-size="14.00">ifa_ifwithroute</text>
<text text-anchor="middle" x="1531.93" y="-525.67" font-family="Times,serif" font-size="14.00">net/route.c</text>
</g>
<!-- rtrequest&#45;&gt;ifa_ifwithroute -->
<g id="edge63" class="edge"><title>rtrequest&#45;&gt;ifa_ifwithroute</title>
<path fill="none" stroke="black" d="M1315.06,-732.061C1359.3,-692.061 1446.36,-613.335 1495.32,-569.064"/>
<polygon fill="black" stroke="black" points="1497.77,-571.568 1502.84,-562.265 1493.08,-566.376 1497.77,-571.568"/>
</g>
<!-- rt_maskedcopy -->
<g id="node46" class="node"><title>rt_maskedcopy</title>
<ellipse fill="none" stroke="black" cx="1531.93" cy="-722.87" rx="89.191" ry="26.7407"/>
<text text-anchor="middle" x="1531.93" y="-726.67" font-family="Times,serif" font-size="14.00">rt_maskedcopy</text>
<text text-anchor="middle" x="1531.93" y="-711.67" font-family="Times,serif" font-size="14.00">net/route.c</text>
</g>
<!-- rtrequest&#45;&gt;rt_maskedcopy -->
<g id="edge61" class="edge"><title>rtrequest&#45;&gt;rt_maskedcopy</title>
<path fill="none" stroke="black" d="M1350.28,-748.114C1377.73,-744.278 1410.47,-739.703 1440.49,-735.508"/>
<polygon fill="black" stroke="black" points="1441.13,-738.952 1450.55,-734.102 1440.16,-732.02 1441.13,-738.952"/>
</g>
<!-- ip_dooptions -->
<g id="node23" class="node"><title>ip_dooptions</title>
<ellipse fill="none" stroke="black" cx="339.349" cy="-591.87" rx="101.233" ry="26.7407"/>
<text text-anchor="middle" x="339.349" y="-595.67" font-family="Times,serif" font-size="14.00">ip_dooptions</text>
<text text-anchor="middle" x="339.349" y="-580.67" font-family="Times,serif" font-size="14.00">netinet/ip_input.c</text>
</g>
<!-- ip_dooptions&#45;&gt;ifa_ifwithnet -->
<g id="edge17" class="edge"><title>ip_dooptions&#45;&gt;ifa_ifwithnet</title>
<path fill="none" stroke="black" d="M354.042,-565.013C374.804,-527.487 418.096,-460.63 476.465,-430.87 610.241,-362.663 663.239,-405.87 813.4,-405.87 813.4,-405.87 813.4,-405.87 1287.62,-405.87 1434.3,-405.87 1605.03,-400.24 1704.64,-396.39"/>
<polygon fill="black" stroke="black" points="1704.79,-399.887 1714.65,-396 1704.52,-392.893 1704.79,-399.887"/>
</g>
<!-- ip_dooptions&#45;&gt;ip_forward -->
<g id="edge18" class="edge"><title>ip_dooptions&#45;&gt;ip_forward</title>
<path fill="none" stroke="black" d="M353.316,-618.706C374.272,-663.002 415.725,-754.616 440.465,-835.87 463.721,-912.25 425.524,-950.391 476.465,-1011.87 482.021,-1018.57 488.847,-1024.2 496.302,-1028.91"/>
<polygon fill="black" stroke="black" points="494.882,-1032.12 505.304,-1034.03 498.343,-1026.04 494.882,-1032.12"/>
</g>
<!-- ip_dooptions&#45;&gt;icmp_error -->
<g id="edge20" class="edge"><title>ip_dooptions&#45;&gt;icmp_error</title>
<path fill="none" stroke="black" d="M352.825,-618.863C373.081,-663.382 413.563,-755.305 440.465,-835.87 460.541,-895.993 429.91,-930.853 476.465,-973.87 493.86,-989.943 620.283,-1009.27 713.179,-1021.56"/>
<polygon fill="black" stroke="black" points="712.822,-1025.04 723.193,-1022.88 713.734,-1018.1 712.822,-1025.04"/>
</g>
<!-- ip_dooptions&#45;&gt;iptime -->
<g id="edge22" class="edge"><title>ip_dooptions&#45;&gt;iptime</title>
<path fill="none" stroke="black" d="M416.069,-574.241C440.254,-568.61 467.174,-562.342 491.951,-556.574"/>
<polygon fill="black" stroke="black" points="492.747,-559.982 501.693,-554.306 491.16,-553.164 492.747,-559.982"/>
</g>
<!-- ifa_ifwithdstaddr -->
<g id="node24" class="node"><title>ifa_ifwithdstaddr</title>
<ellipse fill="none" stroke="black" cx="1789.96" cy="-536.87" rx="98.0761" ry="26.7407"/>
<text text-anchor="middle" x="1789.96" y="-540.67" font-family="Times,serif" font-size="14.00">ifa_ifwithdstaddr</text>
<text text-anchor="middle" x="1789.96" y="-525.67" font-family="Times,serif" font-size="14.00">net/if.c</text>
</g>
<!-- ip_dooptions&#45;&gt;ifa_ifwithdstaddr -->
<g id="edge19" class="edge"><title>ip_dooptions&#45;&gt;ifa_ifwithdstaddr</title>
<path fill="none" stroke="black" d="M368.946,-566.018C394.921,-544.282 435.355,-514.622 476.465,-500.87 618.704,-453.288 663.413,-481.87 813.4,-481.87 813.4,-481.87 813.4,-481.87 1287.62,-481.87 1444.51,-481.87 1484.88,-478.111 1640.11,-500.87 1663.37,-504.28 1688.32,-509.629 1711.01,-515.17"/>
<polygon fill="black" stroke="black" points="1710.38,-518.619 1720.93,-517.637 1712.07,-511.826 1710.38,-518.619"/>
</g>
<!-- ifa_ifwithaddr -->
<g id="node25" class="node"><title>ifa_ifwithaddr</title>
<ellipse fill="none" stroke="black" cx="1789.96" cy="-464.87" rx="82.0488" ry="26.7407"/>
<text text-anchor="middle" x="1789.96" y="-468.67" font-family="Times,serif" font-size="14.00">ifa_ifwithaddr</text>
<text text-anchor="middle" x="1789.96" y="-453.67" font-family="Times,serif" font-size="14.00">net/if.c</text>
</g>
<!-- ip_dooptions&#45;&gt;ifa_ifwithaddr -->
<g id="edge21" class="edge"><title>ip_dooptions&#45;&gt;ifa_ifwithaddr</title>
<path fill="none" stroke="black" d="M360.595,-565.438C384.657,-536.269 427.733,-490.697 476.465,-469.87 614.574,-410.844 663.206,-443.87 813.4,-443.87 813.4,-443.87 813.4,-443.87 1287.62,-443.87 1431.85,-443.87 1599.22,-452.654 1699.46,-458.859"/>
<polygon fill="black" stroke="black" points="1699.35,-462.359 1709.55,-459.489 1699.79,-455.373 1699.35,-462.359"/>
</g>
<!-- ip_rtaddr -->
<g id="node26" class="node"><title>ip_rtaddr</title>
<ellipse fill="none" stroke="black" cx="577.581" cy="-718.87" rx="101.233" ry="26.7407"/>
<text text-anchor="middle" x="577.581" y="-722.67" font-family="Times,serif" font-size="14.00">ip_rtaddr</text>
<text text-anchor="middle" x="577.581" y="-707.67" font-family="Times,serif" font-size="14.00">netinet/ip_input.c</text>
</g>
<!-- ip_dooptions&#45;&gt;ip_rtaddr -->
<g id="edge23" class="edge"><title>ip_dooptions&#45;&gt;ip_rtaddr</title>
<path fill="none" stroke="black" d="M373.348,-617.279C400.082,-637.022 439.285,-664.112 476.465,-682.87 484.788,-687.069 493.72,-691.011 502.698,-694.635"/>
<polygon fill="black" stroke="black" points="501.459,-697.909 512.047,-698.294 504.01,-691.39 501.459,-697.909"/>
</g>
<!-- save_rte -->
<g id="node27" class="node"><title>save_rte</title>
<ellipse fill="none" stroke="black" cx="577.581" cy="-646.87" rx="101.233" ry="26.7407"/>
<text text-anchor="middle" x="577.581" y="-650.67" font-family="Times,serif" font-size="14.00">save_rte</text>
<text text-anchor="middle" x="577.581" y="-635.67" font-family="Times,serif" font-size="14.00">netinet/ip_input.c</text>
</g>
<!-- ip_dooptions&#45;&gt;save_rte -->
<g id="edge24" class="edge"><title>ip_dooptions&#45;&gt;save_rte</title>
<path fill="none" stroke="black" d="M416.069,-609.499C439.91,-615.05 466.408,-621.219 490.892,-626.92"/>
<polygon fill="black" stroke="black" points="490.351,-630.387 500.885,-629.246 491.939,-623.57 490.351,-630.387"/>
</g>
<!-- ifaof_ifpforaddr -->
<g id="node28" class="node"><title>ifaof_ifpforaddr</title>
<ellipse fill="none" stroke="black" cx="1789.96" cy="-608.87" rx="90.5193" ry="26.7407"/>
<text text-anchor="middle" x="1789.96" y="-612.67" font-family="Times,serif" font-size="14.00">ifaof_ifpforaddr</text>
<text text-anchor="middle" x="1789.96" y="-597.67" font-family="Times,serif" font-size="14.00">net/if.c</text>
</g>
<!-- ip_dooptions&#45;&gt;ifaof_ifpforaddr -->
<g id="edge25" class="edge"><title>ip_dooptions&#45;&gt;ifaof_ifpforaddr</title>
<path fill="none" stroke="black" d="M440.489,-593.045C705.606,-596.156 1423.54,-604.582 1688.74,-607.694"/>
<polygon fill="black" stroke="black" points="1689.09,-611.198 1699.13,-607.816 1689.17,-604.199 1689.09,-611.198"/>
</g>
<!-- ip_rtaddr&#45;&gt;rtalloc -->
<g id="edge37" class="edge"><title>ip_rtaddr&#45;&gt;rtalloc</title>
<path fill="none" stroke="black" d="M647.765,-738.315C679.748,-747.305 717.51,-757.918 748.895,-766.74"/>
<polygon fill="black" stroke="black" points="748.271,-770.2 758.845,-769.536 750.165,-763.461 748.271,-770.2"/>
</g>
<!-- ip_rtaddr&#45;&gt;rtfree -->
<g id="edge36" class="edge"><title>ip_rtaddr&#45;&gt;rtfree</title>
<path fill="none" stroke="black" d="M649.209,-699.802C823.536,-656.288 1285.82,-562.652 1640.11,-686.87 1688.55,-703.852 1732.94,-743.953 1760.4,-772.917"/>
<polygon fill="black" stroke="black" points="1757.98,-775.449 1767.35,-780.39 1763.11,-770.683 1757.98,-775.449"/>
</g>
<!-- ip_reass -->
<g id="node29" class="node"><title>ip_reass</title>
<ellipse fill="none" stroke="black" cx="339.349" cy="-251.87" rx="101.233" ry="26.7407"/>
<text text-anchor="middle" x="339.349" y="-255.67" font-family="Times,serif" font-size="14.00">ip_reass</text>
<text text-anchor="middle" x="339.349" y="-240.67" font-family="Times,serif" font-size="14.00">netinet/ip_input.c</text>
</g>
<!-- ip_reass&#45;&gt;ip_deq -->
<g id="edge27" class="edge"><title>ip_reass&#45;&gt;ip_deq</title>
<path fill="none" stroke="black" d="M388.399,-275.371C414.253,-287.694 446.833,-302.713 476.465,-314.87 485.854,-318.722 495.824,-322.579 505.693,-326.261"/>
<polygon fill="black" stroke="black" points="504.509,-329.554 515.103,-329.732 506.932,-322.987 504.509,-329.554"/>
</g>
<!-- ip_reass&#45;&gt;_remque -->
<g id="edge32" class="edge"><title>ip_reass&#45;&gt;_remque</title>
<path fill="none" stroke="black" d="M427.642,-265.173C458.545,-269.882 492.475,-275.053 520.135,-279.268"/>
<polygon fill="black" stroke="black" points="519.611,-282.729 530.024,-280.775 520.665,-275.808 519.611,-282.729"/>
</g>
<!-- m_get -->
<g id="node30" class="node"><title>m_get</title>
<ellipse fill="none" stroke="black" cx="1531.93" cy="-1052.87" rx="99.9045" ry="26.7407"/>
<text text-anchor="middle" x="1531.93" y="-1056.67" font-family="Times,serif" font-size="14.00">m_get</text>
<text text-anchor="middle" x="1531.93" y="-1041.67" font-family="Times,serif" font-size="14.00">kern/uipc_mbuf.c</text>
</g>
<!-- ip_reass&#45;&gt;m_get -->
<g id="edge26" class="edge"><title>ip_reass&#45;&gt;m_get</title>
<path fill="none" stroke="black" d="M395.228,-274.28C412.556,-284.129 429.918,-297.489 440.465,-314.87 542.248,-482.615 373.421,-587.897 476.465,-754.87 568.522,-904.039 638.112,-959.87 813.4,-959.87 813.4,-959.87 813.4,-959.87 1050.8,-959.87 1200.79,-959.87 1243.05,-939.346 1387.74,-978.87 1422.05,-988.244 1457.6,-1006.56 1484.69,-1022.62"/>
<polygon fill="black" stroke="black" points="1483.17,-1025.79 1493.54,-1027.96 1486.79,-1019.8 1483.17,-1025.79"/>
</g>
<!-- ip_enq -->
<g id="node31" class="node"><title>ip_enq</title>
<ellipse fill="none" stroke="black" cx="577.581" cy="-224.87" rx="101.233" ry="26.7407"/>
<text text-anchor="middle" x="577.581" y="-228.67" font-family="Times,serif" font-size="14.00">ip_enq</text>
<text text-anchor="middle" x="577.581" y="-213.67" font-family="Times,serif" font-size="14.00">netinet/ip_input.c</text>
</g>
<!-- ip_reass&#45;&gt;ip_enq -->
<g id="edge28" class="edge"><title>ip_reass&#45;&gt;ip_enq</title>
<path fill="none" stroke="black" d="M432.697,-241.315C446.339,-239.756 460.462,-238.142 474.291,-236.561"/>
<polygon fill="black" stroke="black" points="474.759,-240.031 484.297,-235.418 473.964,-233.076 474.759,-240.031"/>
</g>
<!-- _insque -->
<g id="node32" class="node"><title>_insque</title>
<ellipse fill="green" stroke="black" cx="577.581" cy="-161.87" rx="46.2923" ry="18"/>
<text text-anchor="middle" x="577.581" y="-158.17" font-family="Times,serif" font-size="14.00">_insque</text>
</g>
<!-- ip_reass&#45;&gt;_insque -->
<g id="edge29" class="edge"><title>ip_reass&#45;&gt;_insque</title>
<path fill="none" stroke="black" d="M386.766,-227.993C412.702,-215.265 445.872,-199.984 476.465,-188.87 492.719,-182.965 510.872,-177.69 527.21,-173.404"/>
<polygon fill="black" stroke="black" points="528.296,-176.738 537.115,-170.866 526.559,-169.957 528.296,-176.738"/>
</g>
<!-- m_cat -->
<g id="node33" class="node"><title>m_cat</title>
<ellipse fill="none" stroke="black" cx="577.581" cy="-98.8701" rx="99.9045" ry="26.7407"/>
<text text-anchor="middle" x="577.581" y="-102.67" font-family="Times,serif" font-size="14.00">m_cat</text>
<text text-anchor="middle" x="577.581" y="-87.6701" font-family="Times,serif" font-size="14.00">kern/uipc_mbuf.c</text>
</g>
<!-- ip_reass&#45;&gt;m_cat -->
<g id="edge30" class="edge"><title>ip_reass&#45;&gt;m_cat</title>
<path fill="none" stroke="black" d="M365.243,-225.44C390.986,-199.4 433.387,-159.972 476.465,-134.87 484.2,-130.363 492.595,-126.272 501.123,-122.601"/>
<polygon fill="black" stroke="black" points="502.487,-125.824 510.403,-118.783 499.824,-119.351 502.487,-125.824"/>
</g>
<!-- m_adj -->
<g id="node34" class="node"><title>m_adj</title>
<ellipse fill="none" stroke="black" cx="577.581" cy="-26.8701" rx="99.9045" ry="26.7407"/>
<text text-anchor="middle" x="577.581" y="-30.6701" font-family="Times,serif" font-size="14.00">m_adj</text>
<text text-anchor="middle" x="577.581" y="-15.6701" font-family="Times,serif" font-size="14.00">kern/uipc_mbuf.c</text>
</g>
<!-- ip_reass&#45;&gt;m_adj -->
<g id="edge31" class="edge"><title>ip_reass&#45;&gt;m_adj</title>
<path fill="none" stroke="black" d="M359.562,-225.192C397.083,-173.094 476.465,-62.8701 476.465,-62.8701 482.843,-58.0619 489.923,-53.851 497.285,-50.1726"/>
<polygon fill="black" stroke="black" points="499.131,-53.1749 506.731,-45.7934 496.186,-46.8243 499.131,-53.1749"/>
</g>
<!-- m_get&#45;&gt;m_retry -->
<g id="edge48" class="edge"><title>m_get&#45;&gt;m_retry</title>
<path fill="none" stroke="black" d="M1623.77,-1042.31C1700.87,-1036.87 1813.11,-1037.37 1903.8,-1071.87 1944.85,-1087.49 1983.04,-1120.61 2008.2,-1146.08"/>
<polygon fill="black" stroke="black" points="2005.79,-1148.63 2015.26,-1153.38 2010.82,-1143.76 2005.79,-1148.63"/>
</g>
<!-- ip_srcroute -->
<g id="node35" class="node"><title>ip_srcroute</title>
<ellipse fill="none" stroke="black" cx="1286.62" cy="-1086.87" rx="101.233" ry="26.7407"/>
<text text-anchor="middle" x="1286.62" y="-1090.67" font-family="Times,serif" font-size="14.00">ip_srcroute</text>
<text text-anchor="middle" x="1286.62" y="-1075.67" font-family="Times,serif" font-size="14.00">netinet/ip_input.c</text>
</g>
<!-- ip_srcroute&#45;&gt;m_get -->
<g id="edge33" class="edge"><title>ip_srcroute&#45;&gt;m_get</title>
<path fill="none" stroke="black" d="M1376.49,-1074.45C1394.9,-1071.88 1414.4,-1069.15 1433.11,-1066.54"/>
<polygon fill="black" stroke="black" points="1433.69,-1069.99 1443.11,-1065.14 1432.72,-1063.06 1433.69,-1069.99"/>
</g>
<!-- m_retryhdr -->
<g id="node36" class="node"><title>m_retryhdr</title>
<ellipse fill="none" stroke="black" cx="2039.5" cy="-1042.87" rx="99.9045" ry="26.7407"/>
<text text-anchor="middle" x="2039.5" y="-1046.67" font-family="Times,serif" font-size="14.00">m_retryhdr</text>
<text text-anchor="middle" x="2039.5" y="-1031.67" font-family="Times,serif" font-size="14.00">kern/uipc_mbuf.c</text>
</g>
<!-- m_retryhdr&#45;&gt;m_reclaim -->
<g id="edge34" class="edge"><title>m_retryhdr&#45;&gt;m_reclaim</title>
<path fill="none" stroke="black" d="M2097,-1064.9C2130.42,-1077.93 2172.91,-1094.49 2207.88,-1108.13"/>
<polygon fill="black" stroke="black" points="2206.93,-1111.52 2217.52,-1111.89 2209.48,-1104.99 2206.93,-1111.52"/>
</g>
<!-- ipintr -->
<g id="node37" class="node"><title>ipintr</title>
<ellipse fill="none" stroke="black" cx="101.116" cy="-591.87" rx="101.233" ry="26.7407"/>
<text text-anchor="middle" x="101.116" y="-595.67" font-family="Times,serif" font-size="14.00">ipintr</text>
<text text-anchor="middle" x="101.116" y="-580.67" font-family="Times,serif" font-size="14.00">netinet/ip_input.c</text>
</g>
<!-- ipintr&#45;&gt;ip_forward -->
<g id="edge39" class="edge"><title>ipintr&#45;&gt;ip_forward</title>
<path fill="none" stroke="black" d="M119.658,-618.494C168.322,-690.557 312.306,-891.917 476.465,-1009.87 485.555,-1016.4 495.791,-1022.21 506.157,-1027.28"/>
<polygon fill="black" stroke="black" points="504.735,-1030.48 515.276,-1031.55 507.702,-1024.14 504.735,-1030.48"/>
</g>
<!-- ipintr&#45;&gt;ip_freef -->
<g id="edge41" class="edge"><title>ipintr&#45;&gt;ip_freef</title>
<path fill="none" stroke="black" d="M127.847,-565.62C170.981,-521.616 257.815,-433.029 305.368,-384.517"/>
<polygon fill="black" stroke="black" points="308.149,-386.679 312.65,-377.088 303.15,-381.779 308.149,-386.679"/>
</g>
<!-- ipintr&#45;&gt;ip_dooptions -->
<g id="edge38" class="edge"><title>ipintr&#45;&gt;ip_dooptions</title>
<path fill="none" stroke="black" d="M202.3,-591.87C210.796,-591.87 219.419,-591.87 227.987,-591.87"/>
<polygon fill="black" stroke="black" points="228.01,-595.37 238.01,-591.87 228.01,-588.37 228.01,-595.37"/>
</g>
<!-- ipintr&#45;&gt;ip_reass -->
<g id="edge40" class="edge"><title>ipintr&#45;&gt;ip_reass</title>
<path fill="none" stroke="black" d="M109.836,-565.003C126.158,-511.982 168.505,-392.327 238.233,-314.87 250.178,-301.601 265.556,-290.079 280.658,-280.647"/>
<polygon fill="black" stroke="black" points="282.722,-283.49 289.49,-275.338 279.116,-277.49 282.722,-283.49"/>
</g>
<!-- ipintr&#45;&gt;m_adj -->
<g id="edge42" class="edge"><title>ipintr&#45;&gt;m_adj</title>
<path fill="none" stroke="black" d="M105.823,-564.847C116.073,-498.753 150.101,-326.288 238.233,-215.87 306.157,-130.769 423.411,-77.7345 500.486,-50.2323"/>
<polygon fill="black" stroke="black" points="501.87,-53.4559 510.147,-46.8431 499.553,-46.8505 501.87,-53.4559"/>
</g>
<!-- in_cksum -->
<g id="node38" class="node"><title>in_cksum</title>
<ellipse fill="none" stroke="black" cx="1531.93" cy="-1268.87" rx="108.375" ry="26.7407"/>
<text text-anchor="middle" x="1531.93" y="-1272.67" font-family="Times,serif" font-size="14.00">in_cksum</text>
<text text-anchor="middle" x="1531.93" y="-1257.67" font-family="Times,serif" font-size="14.00">netinet/in_cksum.c</text>
</g>
<!-- ipintr&#45;&gt;in_cksum -->
<g id="edge43" class="edge"><title>ipintr&#45;&gt;in_cksum</title>
<path fill="none" stroke="black" d="M105.223,-618.823C122.554,-755.108 219.75,-1361.87 576.581,-1361.87 576.581,-1361.87 576.581,-1361.87 1050.8,-1361.87 1195.95,-1361.87 1361.34,-1320.4 1455.22,-1292.84"/>
<polygon fill="black" stroke="black" points="1456.32,-1296.17 1464.91,-1289.97 1454.33,-1289.46 1456.32,-1296.17"/>
</g>
<!-- m_pullup -->
<g id="node39" class="node"><title>m_pullup</title>
<ellipse fill="none" stroke="black" cx="1049.8" cy="-1416.87" rx="99.9045" ry="26.7407"/>
<text text-anchor="middle" x="1049.8" y="-1420.67" font-family="Times,serif" font-size="14.00">m_pullup</text>
<text text-anchor="middle" x="1049.8" y="-1405.67" font-family="Times,serif" font-size="14.00">kern/uipc_mbuf.c</text>
</g>
<!-- ipintr&#45;&gt;m_pullup -->
<g id="edge44" class="edge"><title>ipintr&#45;&gt;m_pullup</title>
<path fill="none" stroke="black" d="M102.502,-619.042C104.906,-745.296 121.875,-1272.84 238.233,-1375.87 446.88,-1560.62 816.954,-1484.37 974.482,-1440.14"/>
<polygon fill="black" stroke="black" points="975.887,-1443.38 984.547,-1437.27 973.971,-1436.64 975.887,-1443.38"/>
</g>
<!-- m_pullup&#45;&gt;m_retry -->
<g id="edge69" class="edge"><title>m_pullup&#45;&gt;m_retry</title>
<path fill="none" stroke="black" d="M1149.18,-1419.35C1313.33,-1419.78 1650.09,-1404.72 1903.8,-1287.87 1943.2,-1269.72 1981.1,-1237.58 2006.61,-1213.07"/>
<polygon fill="black" stroke="black" points="2009.08,-1215.54 2013.79,-1206.05 2004.19,-1210.53 2009.08,-1215.54"/>
</g>
<!-- m_gethdr&#45;&gt;m_retryhdr -->
<g id="edge45" class="edge"><title>m_gethdr&#45;&gt;m_retryhdr</title>
<path fill="none" stroke="black" d="M1386.42,-1013.86C1457.1,-1013.52 1554.49,-1013.84 1640.11,-1016.87 1739.92,-1020.41 1853.58,-1028.2 1933.89,-1034.34"/>
<polygon fill="black" stroke="black" points="1933.76,-1037.84 1944,-1035.11 1934.3,-1030.86 1933.76,-1037.84"/>
</g>
<!-- rt_setgate&#45;&gt;rtfree -->
<g id="edge46" class="edge"><title>rt_setgate&#45;&gt;rtfree</title>
<path fill="none" stroke="black" d="M1597.2,-826.092C1632.81,-822.336 1677.26,-817.65 1714.39,-813.734"/>
<polygon fill="black" stroke="black" points="1715.08,-817.181 1724.65,-812.651 1714.34,-810.219 1715.08,-817.181"/>
</g>
<!-- rt_setgate&#45;&gt;rtalloc1 -->
<g id="edge47" class="edge"><title>rt_setgate&#45;&gt;rtalloc1</title>
<path fill="none" stroke="black" d="M1466.67,-826.446C1378.04,-817.585 1218.63,-801.648 1125.02,-792.29"/>
<polygon fill="black" stroke="black" points="1125.36,-788.806 1115.06,-791.294 1124.66,-795.771 1125.36,-788.806"/>
</g>
<!-- ifa_ifwithroute&#45;&gt;ifa_ifwithnet -->
<g id="edge51" class="edge"><title>ifa_ifwithroute&#45;&gt;ifa_ifwithnet</title>
<path fill="none" stroke="black" d="M1560.6,-511.447C1588.12,-487.32 1632.42,-451.48 1676.11,-428.87 1689.17,-422.113 1703.74,-416.322 1717.95,-411.485"/>
<polygon fill="black" stroke="black" points="1719.3,-414.726 1727.71,-408.288 1717.12,-408.074 1719.3,-414.726"/>
</g>
<!-- ifa_ifwithroute&#45;&gt;rtalloc1 -->
<g id="edge55" class="edge"><title>ifa_ifwithroute&#45;&gt;rtalloc1</title>
<path fill="none" stroke="black" d="M1475.05,-557.081C1405.26,-583.263 1283.16,-632.202 1185.51,-687.87 1151.05,-707.509 1114.72,-734.062 1088.48,-754.421"/>
<polygon fill="black" stroke="black" points="1086.05,-751.879 1080.33,-760.797 1090.36,-757.392 1086.05,-751.879"/>
</g>
<!-- ifa_ifwithroute&#45;&gt;ifa_ifwithdstaddr -->
<g id="edge52" class="edge"><title>ifa_ifwithroute&#45;&gt;ifa_ifwithdstaddr</title>
<path fill="none" stroke="black" d="M1618.54,-536.87C1638.65,-536.87 1660.34,-536.87 1681.28,-536.87"/>
<polygon fill="black" stroke="black" points="1681.49,-540.37 1691.49,-536.87 1681.49,-533.37 1681.49,-540.37"/>
</g>
<!-- ifa_ifwithroute&#45;&gt;ifa_ifwithaddr -->
<g id="edge53" class="edge"><title>ifa_ifwithroute&#45;&gt;ifa_ifwithaddr</title>
<path fill="none" stroke="black" d="M1596.54,-518.98C1633.11,-508.696 1679.17,-495.745 1717.05,-485.092"/>
<polygon fill="black" stroke="black" points="1718.31,-488.372 1726.99,-482.295 1716.42,-481.633 1718.31,-488.372"/>
</g>
<!-- ifa_ifwithroute&#45;&gt;ifaof_ifpforaddr -->
<g id="edge54" class="edge"><title>ifa_ifwithroute&#45;&gt;ifaof_ifpforaddr</title>
<path fill="none" stroke="black" d="M1596.54,-554.76C1632.03,-564.739 1676.44,-577.227 1713.65,-587.691"/>
<polygon fill="black" stroke="black" points="1712.86,-591.107 1723.44,-590.445 1714.76,-584.368 1712.86,-591.107"/>
</g>
<!-- icmp_reflect&#45;&gt;in_canforward -->
<g id="edge64" class="edge"><title>icmp_reflect&#45;&gt;in_canforward</title>
<path fill="none" stroke="black" d="M1076.04,-1107.83C1101.65,-1132.95 1143.43,-1170.69 1185.51,-1194.87 1194.61,-1200.1 1204.6,-1204.78 1214.65,-1208.9"/>
<polygon fill="black" stroke="black" points="1213.68,-1212.28 1224.26,-1212.68 1216.23,-1205.77 1213.68,-1212.28"/>
</g>
<!-- icmp_reflect&#45;&gt;ifaof_ifpforaddr -->
<g id="edge68" class="edge"><title>icmp_reflect&#45;&gt;ifaof_ifpforaddr</title>
<path fill="none" stroke="black" d="M1061.18,-1054.87C1079.32,-1007.56 1117.89,-906.54 1149.51,-820.87 1165.86,-776.555 1149.51,-751.459 1185.51,-720.87 1224.02,-688.145 1536.84,-642.416 1696.27,-620.928"/>
<polygon fill="black" stroke="black" points="1697.1,-624.348 1706.54,-619.548 1696.17,-617.41 1697.1,-624.348"/>
</g>
<!-- icmp_reflect&#45;&gt;ip_srcroute -->
<g id="edge66" class="edge"><title>icmp_reflect&#45;&gt;ip_srcroute</title>
<path fill="none" stroke="black" d="M1149.37,-1083.97C1158.03,-1084.15 1166.83,-1084.34 1175.57,-1084.53"/>
<polygon fill="black" stroke="black" points="1175.73,-1088.03 1185.8,-1084.74 1175.88,-1081.03 1175.73,-1088.03"/>
</g>
<!-- icmp_reflect&#45;&gt;m_gethdr -->
<g id="edge65" class="edge"><title>icmp_reflect&#45;&gt;m_gethdr</title>
<path fill="none" stroke="black" d="M1119.04,-1062.4C1146.78,-1054.49 1178.99,-1045.3 1207.65,-1037.12"/>
<polygon fill="black" stroke="black" points="1208.97,-1040.38 1217.62,-1034.27 1207.05,-1033.65 1208.97,-1040.38"/>
</g>
<!-- icmp_send -->
<g id="node45" class="node"><title>icmp_send</title>
<ellipse fill="none" stroke="black" cx="1286.62" cy="-1158.87" rx="99.9045" ry="26.7407"/>
<text text-anchor="middle" x="1286.62" y="-1162.67" font-family="Times,serif" font-size="14.00">icmp_send</text>
<text text-anchor="middle" x="1286.62" y="-1147.67" font-family="Times,serif" font-size="14.00">netinet/ip_icmp.c</text>
</g>
<!-- icmp_reflect&#45;&gt;icmp_send -->
<g id="edge67" class="edge"><title>icmp_reflect&#45;&gt;icmp_send</title>
<path fill="none" stroke="black" d="M1113.73,-1102.5C1144.26,-1112.52 1181.11,-1124.6 1212.85,-1135.01"/>
<polygon fill="black" stroke="black" points="1211.93,-1138.39 1222.52,-1138.18 1214.11,-1131.74 1211.93,-1138.39"/>
</g>
<!-- icmp_send&#45;&gt;ip_output -->
<g id="edge58" class="edge"><title>icmp_send&#45;&gt;ip_output</title>
<path fill="none" stroke="black" d="M1373.4,-1172.27C1391.61,-1175.11 1410.99,-1178.14 1429.71,-1181.06"/>
<polygon fill="black" stroke="black" points="1429.31,-1184.54 1439.73,-1182.63 1430.39,-1177.63 1429.31,-1184.54"/>
</g>
<!-- icmp_send&#45;&gt;in_cksum -->
<g id="edge59" class="edge"><title>icmp_send&#45;&gt;in_cksum</title>
<path fill="none" stroke="black" d="M1355.4,-1178.33C1366.64,-1182.92 1377.84,-1188.4 1387.74,-1194.87 1407.21,-1207.6 1404.13,-1220.35 1423.74,-1232.87 1431.13,-1237.59 1439.21,-1241.76 1447.51,-1245.43"/>
<polygon fill="black" stroke="black" points="1446.37,-1248.74 1456.95,-1249.36 1449.06,-1242.28 1446.37,-1248.74"/>
</g>
</g>
</svg>

